ISO-10303-21;
HEADER;
/* Generated by software containing ST-Developer
 * from STEP Tools, Inc. (www.steptools.com) 
 */

FILE_DESCRIPTION(
/* description */ (''),
/* implementation_level */ '2;1');

FILE_NAME(
/* name */ 'Bore Support.step',
/* time_stamp */ '2026-09-30T09:14:19-07:00',
/* author */ (''),
/* organization */ (''),
/* preprocessor_version */ 'ST-DEVELOPER v20.1',
/* originating_system */ 'Autodesk Translation Framework v15.8.0.0',
/* authorisation */ '');

FILE_SCHEMA (('AUTOMOTIVE_DESIGN { 1 0 10303 214 3 1 1 }'));
ENDSEC;

DATA;
#10=MECHANICAL_DESIGN_GEOMETRIC_PRESENTATION_REPRESENTATION('',(#13),#408);
#11=SHAPE_REPRESENTATION_RELATIONSHIP('SRR','None',#415,#12);
#12=ADVANCED_BREP_SHAPE_REPRESENTATION('',(#14),#407);
#13=STYLED_ITEM('',(#424),#14);
#14=MANIFOLD_SOLID_BREP('Body1',#232);
#15=FACE_BOUND('',#78,.T.);
#16=FACE_BOUND('',#80,.T.);
#17=FACE_BOUND('',#86,.T.);
#18=FACE_BOUND('',#93,.T.);
#19=FACE_BOUND('',#95,.T.);
#20=LINE('',#351,#37);
#21=LINE('',#362,#38);
#22=LINE('',#365,#39);
#23=LINE('',#372,#40);
#24=LINE('',#377,#41);
#25=LINE('',#379,#42);
#26=LINE('',#381,#43);
#27=LINE('',#382,#44);
#28=LINE('',#386,#45);
#29=LINE('',#389,#46);
#30=LINE('',#391,#47);
#31=LINE('',#392,#48);
#32=LINE('',#395,#49);
#33=LINE('',#396,#50);
#34=LINE('',#399,#51);
#35=LINE('',#400,#52);
#36=LINE('',#402,#53);
#37=VECTOR('',#282,9.);
#38=VECTOR('',#297,4.4);
#39=VECTOR('',#300,5.2);
#40=VECTOR('',#309,10.);
#41=VECTOR('',#314,10.);
#42=VECTOR('',#315,10.);
#43=VECTOR('',#316,10.);
#44=VECTOR('',#317,10.);
#45=VECTOR('',#322,5.);
#46=VECTOR('',#325,10.);
#47=VECTOR('',#326,10.);
#48=VECTOR('',#327,10.);
#49=VECTOR('',#330,10.);
#50=VECTOR('',#331,10.);
#51=VECTOR('',#334,10.);
#52=VECTOR('',#335,10.);
#53=VECTOR('',#338,10.);
#54=CYLINDRICAL_SURFACE('',#248,9.);
#55=CYLINDRICAL_SURFACE('',#256,4.4);
#56=CYLINDRICAL_SURFACE('',#257,5.2);
#57=CYLINDRICAL_SURFACE('',#260,10.);
#58=CYLINDRICAL_SURFACE('',#264,5.);
#59=FACE_OUTER_BOUND('',#75,.T.);
#60=FACE_OUTER_BOUND('',#76,.T.);
#61=FACE_OUTER_BOUND('',#77,.T.);
#62=FACE_OUTER_BOUND('',#79,.T.);
#63=FACE_OUTER_BOUND('',#81,.T.);
#64=FACE_OUTER_BOUND('',#82,.T.);
#65=FACE_OUTER_BOUND('',#83,.T.);
#66=FACE_OUTER_BOUND('',#84,.T.);
#67=FACE_OUTER_BOUND('',#85,.T.);
#68=FACE_OUTER_BOUND('',#87,.T.);
#69=FACE_OUTER_BOUND('',#88,.T.);
#70=FACE_OUTER_BOUND('',#89,.T.);
#71=FACE_OUTER_BOUND('',#90,.T.);
#72=FACE_OUTER_BOUND('',#91,.T.);
#73=FACE_OUTER_BOUND('',#92,.T.);
#74=FACE_OUTER_BOUND('',#94,.T.);
#75=EDGE_LOOP('',(#151));
#76=EDGE_LOOP('',(#152,#153,#154,#155));
#77=EDGE_LOOP('',(#156));
#78=EDGE_LOOP('',(#157));
#79=EDGE_LOOP('',(#158));
#80=EDGE_LOOP('',(#159));
#81=EDGE_LOOP('',(#160,#161,#162,#163));
#82=EDGE_LOOP('',(#164,#165,#166,#167));
#83=EDGE_LOOP('',(#168));
#84=EDGE_LOOP('',(#169,#170,#171,#172));
#85=EDGE_LOOP('',(#173,#174,#175,#176));
#86=EDGE_LOOP('',(#177));
#87=EDGE_LOOP('',(#178,#179,#180,#181));
#88=EDGE_LOOP('',(#182,#183,#184,#185));
#89=EDGE_LOOP('',(#186,#187,#188,#189));
#90=EDGE_LOOP('',(#190,#191,#192,#193));
#91=EDGE_LOOP('',(#194,#195,#196,#197));
#92=EDGE_LOOP('',(#198,#199,#200,#201));
#93=EDGE_LOOP('',(#202));
#94=EDGE_LOOP('',(#203));
#95=EDGE_LOOP('',(#204));
#96=CIRCLE('',#247,4.4);
#97=CIRCLE('',#249,9.);
#98=CIRCLE('',#250,9.);
#99=CIRCLE('',#252,5.2);
#100=CIRCLE('',#254,5.);
#101=CIRCLE('',#255,4.4);
#102=CIRCLE('',#258,5.2);
#103=CIRCLE('',#261,10.);
#104=CIRCLE('',#262,10.);
#105=CIRCLE('',#265,5.);
#106=VERTEX_POINT('',#345);
#107=VERTEX_POINT('',#348);
#108=VERTEX_POINT('',#350);
#109=VERTEX_POINT('',#354);
#110=VERTEX_POINT('',#357);
#111=VERTEX_POINT('',#359);
#112=VERTEX_POINT('',#364);
#113=VERTEX_POINT('',#369);
#114=VERTEX_POINT('',#371);
#115=VERTEX_POINT('',#375);
#116=VERTEX_POINT('',#376);
#117=VERTEX_POINT('',#378);
#118=VERTEX_POINT('',#380);
#119=VERTEX_POINT('',#384);
#120=VERTEX_POINT('',#388);
#121=VERTEX_POINT('',#390);
#122=VERTEX_POINT('',#394);
#123=VERTEX_POINT('',#398);
#124=EDGE_CURVE('',#106,#106,#96,.T.);
#125=EDGE_CURVE('',#107,#107,#97,.T.);
#126=EDGE_CURVE('',#107,#108,#20,.T.);
#127=EDGE_CURVE('',#108,#108,#98,.T.);
#128=EDGE_CURVE('',#109,#109,#99,.T.);
#129=EDGE_CURVE('',#110,#110,#100,.T.);
#130=EDGE_CURVE('',#111,#111,#101,.T.);
#131=EDGE_CURVE('',#106,#111,#21,.T.);
#132=EDGE_CURVE('',#109,#112,#22,.T.);
#133=EDGE_CURVE('',#112,#112,#102,.T.);
#134=EDGE_CURVE('',#113,#113,#103,.T.);
#135=EDGE_CURVE('',#113,#114,#23,.T.);
#136=EDGE_CURVE('',#114,#114,#104,.T.);
#137=EDGE_CURVE('',#115,#116,#24,.T.);
#138=EDGE_CURVE('',#116,#117,#25,.T.);
#139=EDGE_CURVE('',#117,#118,#26,.T.);
#140=EDGE_CURVE('',#118,#115,#27,.T.);
#141=EDGE_CURVE('',#119,#119,#105,.T.);
#142=EDGE_CURVE('',#119,#110,#28,.T.);
#143=EDGE_CURVE('',#120,#116,#29,.T.);
#144=EDGE_CURVE('',#121,#120,#30,.T.);
#145=EDGE_CURVE('',#117,#121,#31,.T.);
#146=EDGE_CURVE('',#122,#121,#32,.T.);
#147=EDGE_CURVE('',#118,#122,#33,.T.);
#148=EDGE_CURVE('',#123,#122,#34,.T.);
#149=EDGE_CURVE('',#115,#123,#35,.T.);
#150=EDGE_CURVE('',#120,#123,#36,.T.);
#151=ORIENTED_EDGE('',*,*,#124,.F.);
#152=ORIENTED_EDGE('',*,*,#125,.F.);
#153=ORIENTED_EDGE('',*,*,#126,.T.);
#154=ORIENTED_EDGE('',*,*,#127,.F.);
#155=ORIENTED_EDGE('',*,*,#126,.F.);
#156=ORIENTED_EDGE('',*,*,#125,.T.);
#157=ORIENTED_EDGE('',*,*,#128,.F.);
#158=ORIENTED_EDGE('',*,*,#129,.F.);
#159=ORIENTED_EDGE('',*,*,#130,.F.);
#160=ORIENTED_EDGE('',*,*,#124,.T.);
#161=ORIENTED_EDGE('',*,*,#131,.T.);
#162=ORIENTED_EDGE('',*,*,#130,.T.);
#163=ORIENTED_EDGE('',*,*,#131,.F.);
#164=ORIENTED_EDGE('',*,*,#128,.T.);
#165=ORIENTED_EDGE('',*,*,#132,.T.);
#166=ORIENTED_EDGE('',*,*,#133,.F.);
#167=ORIENTED_EDGE('',*,*,#132,.F.);
#168=ORIENTED_EDGE('',*,*,#127,.T.);
#169=ORIENTED_EDGE('',*,*,#134,.F.);
#170=ORIENTED_EDGE('',*,*,#135,.T.);
#171=ORIENTED_EDGE('',*,*,#136,.F.);
#172=ORIENTED_EDGE('',*,*,#135,.F.);
#173=ORIENTED_EDGE('',*,*,#137,.T.);
#174=ORIENTED_EDGE('',*,*,#138,.T.);
#175=ORIENTED_EDGE('',*,*,#139,.T.);
#176=ORIENTED_EDGE('',*,*,#140,.T.);
#177=ORIENTED_EDGE('',*,*,#134,.T.);
#178=ORIENTED_EDGE('',*,*,#141,.F.);
#179=ORIENTED_EDGE('',*,*,#142,.T.);
#180=ORIENTED_EDGE('',*,*,#129,.T.);
#181=ORIENTED_EDGE('',*,*,#142,.F.);
#182=ORIENTED_EDGE('',*,*,#143,.F.);
#183=ORIENTED_EDGE('',*,*,#144,.F.);
#184=ORIENTED_EDGE('',*,*,#145,.F.);
#185=ORIENTED_EDGE('',*,*,#138,.F.);
#186=ORIENTED_EDGE('',*,*,#145,.T.);
#187=ORIENTED_EDGE('',*,*,#146,.F.);
#188=ORIENTED_EDGE('',*,*,#147,.F.);
#189=ORIENTED_EDGE('',*,*,#139,.F.);
#190=ORIENTED_EDGE('',*,*,#147,.T.);
#191=ORIENTED_EDGE('',*,*,#148,.F.);
#192=ORIENTED_EDGE('',*,*,#149,.F.);
#193=ORIENTED_EDGE('',*,*,#140,.F.);
#194=ORIENTED_EDGE('',*,*,#149,.T.);
#195=ORIENTED_EDGE('',*,*,#150,.F.);
#196=ORIENTED_EDGE('',*,*,#143,.T.);
#197=ORIENTED_EDGE('',*,*,#137,.F.);
#198=ORIENTED_EDGE('',*,*,#150,.T.);
#199=ORIENTED_EDGE('',*,*,#148,.T.);
#200=ORIENTED_EDGE('',*,*,#146,.T.);
#201=ORIENTED_EDGE('',*,*,#144,.T.);
#202=ORIENTED_EDGE('',*,*,#141,.T.);
#203=ORIENTED_EDGE('',*,*,#136,.T.);
#204=ORIENTED_EDGE('',*,*,#133,.T.);
#205=PLANE('',#246);
#206=PLANE('',#251);
#207=PLANE('',#253);
#208=PLANE('',#259);
#209=PLANE('',#263);
#210=PLANE('',#266);
#211=PLANE('',#267);
#212=PLANE('',#268);
#213=PLANE('',#269);
#214=PLANE('',#270);
#215=PLANE('',#271);
#216=ADVANCED_FACE('',(#59),#205,.F.);
#217=ADVANCED_FACE('',(#60),#54,.T.);
#218=ADVANCED_FACE('',(#61,#15),#206,.F.);
#219=ADVANCED_FACE('',(#62,#16),#207,.F.);
#220=ADVANCED_FACE('',(#63),#55,.F.);
#221=ADVANCED_FACE('',(#64),#56,.T.);
#222=ADVANCED_FACE('',(#65),#208,.T.);
#223=ADVANCED_FACE('',(#66),#57,.F.);
#224=ADVANCED_FACE('',(#67,#17),#209,.F.);
#225=ADVANCED_FACE('',(#68),#58,.F.);
#226=ADVANCED_FACE('',(#69),#210,.T.);
#227=ADVANCED_FACE('',(#70),#211,.T.);
#228=ADVANCED_FACE('',(#71),#212,.T.);
#229=ADVANCED_FACE('',(#72),#213,.T.);
#230=ADVANCED_FACE('',(#73,#18),#214,.T.);
#231=ADVANCED_FACE('',(#74,#19),#215,.F.);
#232=CLOSED_SHELL('',(#216,#217,#218,#219,#220,#221,#222,#223,#224,#225,
#226,#227,#228,#229,#230,#231));
#233=DERIVED_UNIT_ELEMENT(#235,1.);
#234=DERIVED_UNIT_ELEMENT(#410,-3.);
#235=(
MASS_UNIT()
NAMED_UNIT(*)
SI_UNIT(.KILO.,.GRAM.)
);
#236=DERIVED_UNIT((#233,#234));
#237=MEASURE_REPRESENTATION_ITEM('density measure',
POSITIVE_RATIO_MEASURE(7850.),#236);
#238=PROPERTY_DEFINITION_REPRESENTATION(#243,#240);
#239=PROPERTY_DEFINITION_REPRESENTATION(#244,#241);
#240=REPRESENTATION('material name',(#242),#407);
#241=REPRESENTATION('density',(#237),#407);
#242=DESCRIPTIVE_REPRESENTATION_ITEM('Steel','Steel');
#243=PROPERTY_DEFINITION('material property','material name',#417);
#244=PROPERTY_DEFINITION('material property','density of part',#417);
#245=AXIS2_PLACEMENT_3D('',#343,#272,#273);
#246=AXIS2_PLACEMENT_3D('',#344,#274,#275);
#247=AXIS2_PLACEMENT_3D('',#346,#276,#277);
#248=AXIS2_PLACEMENT_3D('',#347,#278,#279);
#249=AXIS2_PLACEMENT_3D('',#349,#280,#281);
#250=AXIS2_PLACEMENT_3D('',#352,#283,#284);
#251=AXIS2_PLACEMENT_3D('',#353,#285,#286);
#252=AXIS2_PLACEMENT_3D('',#355,#287,#288);
#253=AXIS2_PLACEMENT_3D('',#356,#289,#290);
#254=AXIS2_PLACEMENT_3D('',#358,#291,#292);
#255=AXIS2_PLACEMENT_3D('',#360,#293,#294);
#256=AXIS2_PLACEMENT_3D('',#361,#295,#296);
#257=AXIS2_PLACEMENT_3D('',#363,#298,#299);
#258=AXIS2_PLACEMENT_3D('',#366,#301,#302);
#259=AXIS2_PLACEMENT_3D('',#367,#303,#304);
#260=AXIS2_PLACEMENT_3D('',#368,#305,#306);
#261=AXIS2_PLACEMENT_3D('',#370,#307,#308);
#262=AXIS2_PLACEMENT_3D('',#373,#310,#311);
#263=AXIS2_PLACEMENT_3D('',#374,#312,#313);
#264=AXIS2_PLACEMENT_3D('',#383,#318,#319);
#265=AXIS2_PLACEMENT_3D('',#385,#320,#321);
#266=AXIS2_PLACEMENT_3D('',#387,#323,#324);
#267=AXIS2_PLACEMENT_3D('',#393,#328,#329);
#268=AXIS2_PLACEMENT_3D('',#397,#332,#333);
#269=AXIS2_PLACEMENT_3D('',#401,#336,#337);
#270=AXIS2_PLACEMENT_3D('',#403,#339,#340);
#271=AXIS2_PLACEMENT_3D('',#404,#341,#342);
#272=DIRECTION('axis',(0.,0.,1.));
#273=DIRECTION('refdir',(1.,0.,0.));
#274=DIRECTION('center_axis',(0.,0.,-1.));
#275=DIRECTION('ref_axis',(1.,0.,0.));
#276=DIRECTION('center_axis',(0.,0.,-1.));
#277=DIRECTION('ref_axis',(1.,0.,0.));
#278=DIRECTION('center_axis',(0.,0.,1.));
#279=DIRECTION('ref_axis',(1.,0.,0.));
#280=DIRECTION('center_axis',(0.,0.,1.));
#281=DIRECTION('ref_axis',(1.,0.,0.));
#282=DIRECTION('',(0.,0.,-1.));
#283=DIRECTION('center_axis',(0.,0.,-1.));
#284=DIRECTION('ref_axis',(1.,0.,0.));
#285=DIRECTION('center_axis',(0.,0.,-1.));
#286=DIRECTION('ref_axis',(1.,0.,0.));
#287=DIRECTION('center_axis',(0.,0.,1.));
#288=DIRECTION('ref_axis',(1.,0.,0.));
#289=DIRECTION('center_axis',(0.,0.,-1.));
#290=DIRECTION('ref_axis',(1.,0.,0.));
#291=DIRECTION('center_axis',(0.,0.,-1.));
#292=DIRECTION('ref_axis',(1.,0.,0.));
#293=DIRECTION('center_axis',(0.,0.,1.));
#294=DIRECTION('ref_axis',(1.,0.,0.));
#295=DIRECTION('center_axis',(0.,0.,-1.));
#296=DIRECTION('ref_axis',(1.,0.,0.));
#297=DIRECTION('',(0.,0.,1.));
#298=DIRECTION('center_axis',(0.,0.,-1.));
#299=DIRECTION('ref_axis',(1.,0.,0.));
#300=DIRECTION('',(0.,0.,1.));
#301=DIRECTION('center_axis',(0.,0.,1.));
#302=DIRECTION('ref_axis',(1.,0.,0.));
#303=DIRECTION('center_axis',(0.,0.,-1.));
#304=DIRECTION('ref_axis',(1.,0.,0.));
#305=DIRECTION('center_axis',(0.,0.,-1.));
#306=DIRECTION('ref_axis',(1.,0.,0.));
#307=DIRECTION('center_axis',(0.,0.,1.));
#308=DIRECTION('ref_axis',(1.,0.,0.));
#309=DIRECTION('',(0.,0.,1.));
#310=DIRECTION('center_axis',(0.,0.,-1.));
#311=DIRECTION('ref_axis',(1.,0.,0.));
#312=DIRECTION('center_axis',(0.,0.,1.));
#313=DIRECTION('ref_axis',(1.,0.,0.));
#314=DIRECTION('',(1.,-1.11022302462516E-16,0.));
#315=DIRECTION('',(0.,-1.,0.));
#316=DIRECTION('',(-1.,5.55111512312578E-17,0.));
#317=DIRECTION('',(1.11022302462516E-16,1.,0.));
#318=DIRECTION('center_axis',(0.,0.,1.));
#319=DIRECTION('ref_axis',(1.,0.,0.));
#320=DIRECTION('center_axis',(0.,0.,-1.));
#321=DIRECTION('ref_axis',(1.,0.,0.));
#322=DIRECTION('',(0.,0.,-1.));
#323=DIRECTION('center_axis',(1.,0.,0.));
#324=DIRECTION('ref_axis',(0.,1.,0.));
#325=DIRECTION('',(0.,0.,-1.));
#326=DIRECTION('',(0.,1.,0.));
#327=DIRECTION('',(0.,0.,1.));
#328=DIRECTION('center_axis',(-5.55111512312578E-17,-1.,0.));
#329=DIRECTION('ref_axis',(1.,-5.55111512312578E-17,0.));
#330=DIRECTION('',(1.,-5.55111512312578E-17,0.));
#331=DIRECTION('',(0.,0.,1.));
#332=DIRECTION('center_axis',(-1.,1.11022302462516E-16,0.));
#333=DIRECTION('ref_axis',(-1.11022302462516E-16,-1.,0.));
#334=DIRECTION('',(-1.11022302462516E-16,-1.,0.));
#335=DIRECTION('',(0.,0.,1.));
#336=DIRECTION('center_axis',(1.11022302462516E-16,1.,0.));
#337=DIRECTION('ref_axis',(-1.,1.11022302462516E-16,0.));
#338=DIRECTION('',(-1.,1.11022302462516E-16,0.));
#339=DIRECTION('center_axis',(0.,0.,1.));
#340=DIRECTION('ref_axis',(1.,0.,0.));
#341=DIRECTION('center_axis',(0.,0.,1.));
#342=DIRECTION('ref_axis',(1.,0.,0.));
#343=CARTESIAN_POINT('',(0.,0.,0.));
#344=CARTESIAN_POINT('Origin',(0.,0.,-9.6));
#345=CARTESIAN_POINT('',(-4.4,5.38844591624835E-16,-9.6));
#346=CARTESIAN_POINT('Origin',(0.,0.,-9.6));
#347=CARTESIAN_POINT('Origin',(0.,0.,-10.));
#348=CARTESIAN_POINT('',(-9.,1.10218211923262E-15,-9.6));
#349=CARTESIAN_POINT('Origin',(0.,0.,-9.6));
#350=CARTESIAN_POINT('',(-9.,1.10218211923262E-15,-10.));
#351=CARTESIAN_POINT('',(-9.,-1.10218211923262E-15,-10.));
#352=CARTESIAN_POINT('Origin',(0.,0.,-10.));
#353=CARTESIAN_POINT('Origin',(0.,0.,-9.6));
#354=CARTESIAN_POINT('',(-5.2,6.36816335556624E-16,-9.6));
#355=CARTESIAN_POINT('Origin',(0.,0.,-9.6));
#356=CARTESIAN_POINT('Origin',(0.,0.,0.));
#357=CARTESIAN_POINT('',(-5.,-6.12323399573677E-16,0.));
#358=CARTESIAN_POINT('Origin',(0.,0.,0.));
#359=CARTESIAN_POINT('',(-4.4,5.38844591624835E-16,0.));
#360=CARTESIAN_POINT('Origin',(0.,0.,0.));
#361=CARTESIAN_POINT('Origin',(0.,0.,0.));
#362=CARTESIAN_POINT('',(-4.4,5.38844591624835E-16,0.));
#363=CARTESIAN_POINT('Origin',(0.,0.,0.));
#364=CARTESIAN_POINT('',(-5.2,6.36816335556624E-16,0.));
#365=CARTESIAN_POINT('',(-5.2,6.36816335556624E-16,0.));
#366=CARTESIAN_POINT('Origin',(0.,0.,0.));
#367=CARTESIAN_POINT('Origin',(0.,0.,-10.));
#368=CARTESIAN_POINT('Origin',(0.,0.,0.));
#369=CARTESIAN_POINT('',(-10.,-1.22464679914735E-15,-10.));
#370=CARTESIAN_POINT('Origin',(0.,0.,-10.));
#371=CARTESIAN_POINT('',(-10.,-1.22464679914735E-15,0.));
#372=CARTESIAN_POINT('',(-10.,1.22464679914735E-15,0.));
#373=CARTESIAN_POINT('Origin',(0.,0.,0.));
#374=CARTESIAN_POINT('Origin',(4.44089209850063E-15,5.55111512312578E-15,
-10.));
#375=CARTESIAN_POINT('',(-20.,20.,-10.));
#376=CARTESIAN_POINT('',(20.,20.,-10.));
#377=CARTESIAN_POINT('',(-20.,20.,-10.));
#378=CARTESIAN_POINT('',(20.,-20.,-10.));
#379=CARTESIAN_POINT('',(20.,20.,-10.));
#380=CARTESIAN_POINT('',(-20.,-20.,-10.));
#381=CARTESIAN_POINT('',(20.,-20.,-10.));
#382=CARTESIAN_POINT('',(-20.,-20.,-10.));
#383=CARTESIAN_POINT('Origin',(0.,0.,0.));
#384=CARTESIAN_POINT('',(-5.,-6.12323399573677E-16,10.));
#385=CARTESIAN_POINT('Origin',(0.,0.,10.));
#386=CARTESIAN_POINT('',(-5.,-6.12323399573677E-16,0.));
#387=CARTESIAN_POINT('Origin',(20.,-20.,0.));
#388=CARTESIAN_POINT('',(20.,20.,10.));
#389=CARTESIAN_POINT('',(20.,20.,0.));
#390=CARTESIAN_POINT('',(20.,-20.,10.));
#391=CARTESIAN_POINT('',(20.,20.,10.));
#392=CARTESIAN_POINT('',(20.,-20.,0.));
#393=CARTESIAN_POINT('Origin',(-20.,-20.,0.));
#394=CARTESIAN_POINT('',(-20.,-20.,10.));
#395=CARTESIAN_POINT('',(20.,-20.,10.));
#396=CARTESIAN_POINT('',(-20.,-20.,0.));
#397=CARTESIAN_POINT('Origin',(-20.,20.,0.));
#398=CARTESIAN_POINT('',(-20.,20.,10.));
#399=CARTESIAN_POINT('',(-20.,-20.,10.));
#400=CARTESIAN_POINT('',(-20.,20.,0.));
#401=CARTESIAN_POINT('Origin',(20.,20.,0.));
#402=CARTESIAN_POINT('',(-20.,20.,10.));
#403=CARTESIAN_POINT('Origin',(4.44089209850063E-15,5.55111512312578E-15,
10.));
#404=CARTESIAN_POINT('Origin',(4.44089209850063E-15,5.55111512312578E-15,
0.));
#405=UNCERTAINTY_MEASURE_WITH_UNIT(LENGTH_MEASURE(0.01),#409,
'DISTANCE_ACCURACY_VALUE',
'Maximum model space distance between geometric entities at asserted c
onnectivities');
#406=UNCERTAINTY_MEASURE_WITH_UNIT(LENGTH_MEASURE(0.01),#409,
'DISTANCE_ACCURACY_VALUE',
'Maximum model space distance between geometric entities at asserted c
onnectivities');
#407=(
GEOMETRIC_REPRESENTATION_CONTEXT(3)
GLOBAL_UNCERTAINTY_ASSIGNED_CONTEXT((#405))
GLOBAL_UNIT_ASSIGNED_CONTEXT((#409,#411,#412))
REPRESENTATION_CONTEXT('','3D')
);
#408=(
GEOMETRIC_REPRESENTATION_CONTEXT(3)
GLOBAL_UNCERTAINTY_ASSIGNED_CONTEXT((#406))
GLOBAL_UNIT_ASSIGNED_CONTEXT((#409,#411,#412))
REPRESENTATION_CONTEXT('','3D')
);
#409=(
LENGTH_UNIT()
NAMED_UNIT(*)
SI_UNIT(.MILLI.,.METRE.)
);
#410=(
LENGTH_UNIT()
NAMED_UNIT(*)
SI_UNIT($,.METRE.)
);
#411=(
NAMED_UNIT(*)
PLANE_ANGLE_UNIT()
SI_UNIT($,.RADIAN.)
);
#412=(
NAMED_UNIT(*)
SI_UNIT($,.STERADIAN.)
SOLID_ANGLE_UNIT()
);
#413=SHAPE_DEFINITION_REPRESENTATION(#414,#415);
#414=PRODUCT_DEFINITION_SHAPE('',$,#417);
#415=SHAPE_REPRESENTATION('',(#245),#407);
#416=PRODUCT_DEFINITION_CONTEXT('part definition',#421,'design');
#417=PRODUCT_DEFINITION('2026-09-30-08-56-45-624','Bore Support',#418,#416);
#418=PRODUCT_DEFINITION_FORMATION('',$,#423);
#419=PRODUCT_RELATED_PRODUCT_CATEGORY('Bore Support','Bore Support',(#423));
#420=APPLICATION_PROTOCOL_DEFINITION('international standard',
'automotive_design',2009,#421);
#421=APPLICATION_CONTEXT(
'Core Data for Automotive Mechanical Design Process');
#422=PRODUCT_CONTEXT('part definition',#421,'mechanical');
#423=PRODUCT('2026-09-30-08-56-45-624','Bore Support',$,(#422));
#424=PRESENTATION_STYLE_ASSIGNMENT((#425));
#425=SURFACE_STYLE_USAGE(.BOTH.,#426);
#426=SURFACE_SIDE_STYLE('',(#427));
#427=SURFACE_STYLE_FILL_AREA(#428);
#428=FILL_AREA_STYLE('Steel - Satin',(#429));
#429=FILL_AREA_STYLE_COLOUR('Steel - Satin',#430);
#430=COLOUR_RGB('Steel - Satin',0.627450980392157,0.627450980392157,0.627450980392157);
ENDSEC;
END-ISO-10303-21;
