ISO-10303-21;
HEADER;
/* Generated by software containing ST-Developer
 * from STEP Tools, Inc. (www.steptools.com) 
 */

FILE_DESCRIPTION(
/* description */ (''),
/* implementation_level */ '2;1');

FILE_NAME(
/* name */ 'membrane.step',
/* time_stamp */ '2026-09-30T09:06:29-07:00',
/* author */ (''),
/* organization */ (''),
/* preprocessor_version */ 'ST-DEVELOPER v20.1',
/* originating_system */ 'Autodesk Translation Framework v15.8.0.0',
/* authorisation */ '');

FILE_SCHEMA (('AUTOMOTIVE_DESIGN { 1 0 10303 214 3 1 1 }'));
ENDSEC;

DATA;
#10=MECHANICAL_DESIGN_GEOMETRIC_PRESENTATION_REPRESENTATION('',(#13),#273);
#11=SHAPE_REPRESENTATION_RELATIONSHIP('SRR','None',#280,#12);
#12=ADVANCED_BREP_SHAPE_REPRESENTATION('',(#14),#272);
#13=STYLED_ITEM('',(#289),#14);
#14=MANIFOLD_SOLID_BREP('Body1',#157);
#15=FACE_BOUND('',#60,.T.);
#16=FACE_BOUND('',#67,.T.);
#17=LINE('',#237,#31);
#18=LINE('',#242,#32);
#19=LINE('',#244,#33);
#20=LINE('',#246,#34);
#21=LINE('',#247,#35);
#22=LINE('',#251,#36);
#23=LINE('',#254,#37);
#24=LINE('',#256,#38);
#25=LINE('',#257,#39);
#26=LINE('',#260,#40);
#27=LINE('',#261,#41);
#28=LINE('',#264,#42);
#29=LINE('',#265,#43);
#30=LINE('',#267,#44);
#31=VECTOR('',#195,10.);
#32=VECTOR('',#200,10.);
#33=VECTOR('',#201,10.);
#34=VECTOR('',#202,10.);
#35=VECTOR('',#203,10.);
#36=VECTOR('',#208,5.);
#37=VECTOR('',#211,10.);
#38=VECTOR('',#212,10.);
#39=VECTOR('',#213,10.);
#40=VECTOR('',#216,10.);
#41=VECTOR('',#217,10.);
#42=VECTOR('',#220,10.);
#43=VECTOR('',#221,10.);
#44=VECTOR('',#224,10.);
#45=CYLINDRICAL_SURFACE('',#173,10.);
#46=CYLINDRICAL_SURFACE('',#177,5.);
#47=FACE_OUTER_BOUND('',#57,.T.);
#48=FACE_OUTER_BOUND('',#58,.T.);
#49=FACE_OUTER_BOUND('',#59,.T.);
#50=FACE_OUTER_BOUND('',#61,.T.);
#51=FACE_OUTER_BOUND('',#62,.T.);
#52=FACE_OUTER_BOUND('',#63,.T.);
#53=FACE_OUTER_BOUND('',#64,.T.);
#54=FACE_OUTER_BOUND('',#65,.T.);
#55=FACE_OUTER_BOUND('',#66,.T.);
#56=FACE_OUTER_BOUND('',#68,.T.);
#57=EDGE_LOOP('',(#103));
#58=EDGE_LOOP('',(#104,#105,#106,#107));
#59=EDGE_LOOP('',(#108,#109,#110,#111));
#60=EDGE_LOOP('',(#112));
#61=EDGE_LOOP('',(#113,#114,#115,#116));
#62=EDGE_LOOP('',(#117,#118,#119,#120));
#63=EDGE_LOOP('',(#121,#122,#123,#124));
#64=EDGE_LOOP('',(#125,#126,#127,#128));
#65=EDGE_LOOP('',(#129,#130,#131,#132));
#66=EDGE_LOOP('',(#133,#134,#135,#136));
#67=EDGE_LOOP('',(#137));
#68=EDGE_LOOP('',(#138));
#69=CIRCLE('',#172,5.);
#70=CIRCLE('',#174,10.);
#71=CIRCLE('',#175,10.);
#72=CIRCLE('',#178,5.);
#73=VERTEX_POINT('',#231);
#74=VERTEX_POINT('',#234);
#75=VERTEX_POINT('',#236);
#76=VERTEX_POINT('',#240);
#77=VERTEX_POINT('',#241);
#78=VERTEX_POINT('',#243);
#79=VERTEX_POINT('',#245);
#80=VERTEX_POINT('',#249);
#81=VERTEX_POINT('',#253);
#82=VERTEX_POINT('',#255);
#83=VERTEX_POINT('',#259);
#84=VERTEX_POINT('',#263);
#85=EDGE_CURVE('',#73,#73,#69,.T.);
#86=EDGE_CURVE('',#74,#74,#70,.T.);
#87=EDGE_CURVE('',#74,#75,#17,.T.);
#88=EDGE_CURVE('',#75,#75,#71,.T.);
#89=EDGE_CURVE('',#76,#77,#18,.T.);
#90=EDGE_CURVE('',#77,#78,#19,.T.);
#91=EDGE_CURVE('',#78,#79,#20,.T.);
#92=EDGE_CURVE('',#79,#76,#21,.T.);
#93=EDGE_CURVE('',#80,#80,#72,.T.);
#94=EDGE_CURVE('',#80,#73,#22,.T.);
#95=EDGE_CURVE('',#81,#77,#23,.T.);
#96=EDGE_CURVE('',#82,#81,#24,.T.);
#97=EDGE_CURVE('',#78,#82,#25,.T.);
#98=EDGE_CURVE('',#83,#82,#26,.T.);
#99=EDGE_CURVE('',#79,#83,#27,.T.);
#100=EDGE_CURVE('',#84,#83,#28,.T.);
#101=EDGE_CURVE('',#76,#84,#29,.T.);
#102=EDGE_CURVE('',#81,#84,#30,.T.);
#103=ORIENTED_EDGE('',*,*,#85,.F.);
#104=ORIENTED_EDGE('',*,*,#86,.F.);
#105=ORIENTED_EDGE('',*,*,#87,.T.);
#106=ORIENTED_EDGE('',*,*,#88,.F.);
#107=ORIENTED_EDGE('',*,*,#87,.F.);
#108=ORIENTED_EDGE('',*,*,#89,.T.);
#109=ORIENTED_EDGE('',*,*,#90,.T.);
#110=ORIENTED_EDGE('',*,*,#91,.T.);
#111=ORIENTED_EDGE('',*,*,#92,.T.);
#112=ORIENTED_EDGE('',*,*,#86,.T.);
#113=ORIENTED_EDGE('',*,*,#93,.F.);
#114=ORIENTED_EDGE('',*,*,#94,.T.);
#115=ORIENTED_EDGE('',*,*,#85,.T.);
#116=ORIENTED_EDGE('',*,*,#94,.F.);
#117=ORIENTED_EDGE('',*,*,#95,.F.);
#118=ORIENTED_EDGE('',*,*,#96,.F.);
#119=ORIENTED_EDGE('',*,*,#97,.F.);
#120=ORIENTED_EDGE('',*,*,#90,.F.);
#121=ORIENTED_EDGE('',*,*,#97,.T.);
#122=ORIENTED_EDGE('',*,*,#98,.F.);
#123=ORIENTED_EDGE('',*,*,#99,.F.);
#124=ORIENTED_EDGE('',*,*,#91,.F.);
#125=ORIENTED_EDGE('',*,*,#99,.T.);
#126=ORIENTED_EDGE('',*,*,#100,.F.);
#127=ORIENTED_EDGE('',*,*,#101,.F.);
#128=ORIENTED_EDGE('',*,*,#92,.F.);
#129=ORIENTED_EDGE('',*,*,#101,.T.);
#130=ORIENTED_EDGE('',*,*,#102,.F.);
#131=ORIENTED_EDGE('',*,*,#95,.T.);
#132=ORIENTED_EDGE('',*,*,#89,.F.);
#133=ORIENTED_EDGE('',*,*,#102,.T.);
#134=ORIENTED_EDGE('',*,*,#100,.T.);
#135=ORIENTED_EDGE('',*,*,#98,.T.);
#136=ORIENTED_EDGE('',*,*,#96,.T.);
#137=ORIENTED_EDGE('',*,*,#93,.T.);
#138=ORIENTED_EDGE('',*,*,#88,.T.);
#139=PLANE('',#171);
#140=PLANE('',#176);
#141=PLANE('',#179);
#142=PLANE('',#180);
#143=PLANE('',#181);
#144=PLANE('',#182);
#145=PLANE('',#183);
#146=PLANE('',#184);
#147=ADVANCED_FACE('',(#47),#139,.T.);
#148=ADVANCED_FACE('',(#48),#45,.F.);
#149=ADVANCED_FACE('',(#49,#15),#140,.F.);
#150=ADVANCED_FACE('',(#50),#46,.F.);
#151=ADVANCED_FACE('',(#51),#141,.T.);
#152=ADVANCED_FACE('',(#52),#142,.T.);
#153=ADVANCED_FACE('',(#53),#143,.T.);
#154=ADVANCED_FACE('',(#54),#144,.T.);
#155=ADVANCED_FACE('',(#55,#16),#145,.T.);
#156=ADVANCED_FACE('',(#56),#146,.F.);
#157=CLOSED_SHELL('',(#147,#148,#149,#150,#151,#152,#153,#154,#155,#156));
#158=DERIVED_UNIT_ELEMENT(#160,1.);
#159=DERIVED_UNIT_ELEMENT(#275,-3.);
#160=(
MASS_UNIT()
NAMED_UNIT(*)
SI_UNIT(.KILO.,.GRAM.)
);
#161=DERIVED_UNIT((#158,#159));
#162=MEASURE_REPRESENTATION_ITEM('density measure',
POSITIVE_RATIO_MEASURE(7850.),#161);
#163=PROPERTY_DEFINITION_REPRESENTATION(#168,#165);
#164=PROPERTY_DEFINITION_REPRESENTATION(#169,#166);
#165=REPRESENTATION('material name',(#167),#272);
#166=REPRESENTATION('density',(#162),#272);
#167=DESCRIPTIVE_REPRESENTATION_ITEM('Steel','Steel');
#168=PROPERTY_DEFINITION('material property','material name',#282);
#169=PROPERTY_DEFINITION('material property','density of part',#282);
#170=AXIS2_PLACEMENT_3D('',#229,#185,#186);
#171=AXIS2_PLACEMENT_3D('',#230,#187,#188);
#172=AXIS2_PLACEMENT_3D('',#232,#189,#190);
#173=AXIS2_PLACEMENT_3D('',#233,#191,#192);
#174=AXIS2_PLACEMENT_3D('',#235,#193,#194);
#175=AXIS2_PLACEMENT_3D('',#238,#196,#197);
#176=AXIS2_PLACEMENT_3D('',#239,#198,#199);
#177=AXIS2_PLACEMENT_3D('',#248,#204,#205);
#178=AXIS2_PLACEMENT_3D('',#250,#206,#207);
#179=AXIS2_PLACEMENT_3D('',#252,#209,#210);
#180=AXIS2_PLACEMENT_3D('',#258,#214,#215);
#181=AXIS2_PLACEMENT_3D('',#262,#218,#219);
#182=AXIS2_PLACEMENT_3D('',#266,#222,#223);
#183=AXIS2_PLACEMENT_3D('',#268,#225,#226);
#184=AXIS2_PLACEMENT_3D('',#269,#227,#228);
#185=DIRECTION('axis',(0.,0.,1.));
#186=DIRECTION('refdir',(1.,0.,0.));
#187=DIRECTION('center_axis',(0.,0.,1.));
#188=DIRECTION('ref_axis',(1.,0.,0.));
#189=DIRECTION('center_axis',(0.,0.,-1.));
#190=DIRECTION('ref_axis',(1.,0.,0.));
#191=DIRECTION('center_axis',(0.,0.,-1.));
#192=DIRECTION('ref_axis',(1.,0.,0.));
#193=DIRECTION('center_axis',(0.,0.,1.));
#194=DIRECTION('ref_axis',(1.,0.,0.));
#195=DIRECTION('',(0.,0.,1.));
#196=DIRECTION('center_axis',(0.,0.,-1.));
#197=DIRECTION('ref_axis',(1.,0.,0.));
#198=DIRECTION('center_axis',(0.,0.,1.));
#199=DIRECTION('ref_axis',(1.,0.,0.));
#200=DIRECTION('',(1.,-1.11022302462516E-16,0.));
#201=DIRECTION('',(0.,-1.,0.));
#202=DIRECTION('',(-1.,5.55111512312578E-17,0.));
#203=DIRECTION('',(1.11022302462516E-16,1.,0.));
#204=DIRECTION('center_axis',(0.,0.,1.));
#205=DIRECTION('ref_axis',(1.,0.,0.));
#206=DIRECTION('center_axis',(0.,0.,-1.));
#207=DIRECTION('ref_axis',(1.,0.,0.));
#208=DIRECTION('',(0.,0.,-1.));
#209=DIRECTION('center_axis',(1.,0.,0.));
#210=DIRECTION('ref_axis',(0.,1.,0.));
#211=DIRECTION('',(0.,0.,-1.));
#212=DIRECTION('',(0.,1.,0.));
#213=DIRECTION('',(0.,0.,1.));
#214=DIRECTION('center_axis',(-5.55111512312578E-17,-1.,0.));
#215=DIRECTION('ref_axis',(1.,-5.55111512312578E-17,0.));
#216=DIRECTION('',(1.,-5.55111512312578E-17,0.));
#217=DIRECTION('',(0.,0.,1.));
#218=DIRECTION('center_axis',(-1.,1.11022302462516E-16,0.));
#219=DIRECTION('ref_axis',(-1.11022302462516E-16,-1.,0.));
#220=DIRECTION('',(-1.11022302462516E-16,-1.,0.));
#221=DIRECTION('',(0.,0.,1.));
#222=DIRECTION('center_axis',(1.11022302462516E-16,1.,0.));
#223=DIRECTION('ref_axis',(-1.,1.11022302462516E-16,0.));
#224=DIRECTION('',(-1.,1.11022302462516E-16,0.));
#225=DIRECTION('center_axis',(0.,0.,1.));
#226=DIRECTION('ref_axis',(1.,0.,0.));
#227=DIRECTION('center_axis',(0.,0.,1.));
#228=DIRECTION('ref_axis',(1.,0.,0.));
#229=CARTESIAN_POINT('',(0.,0.,0.));
#230=CARTESIAN_POINT('Origin',(0.,0.,0.4));
#231=CARTESIAN_POINT('',(-5.,-6.12323399573677E-16,0.4));
#232=CARTESIAN_POINT('Origin',(0.,0.,0.4));
#233=CARTESIAN_POINT('Origin',(0.,0.,0.));
#234=CARTESIAN_POINT('',(-10.,-1.22464679914735E-15,-10.));
#235=CARTESIAN_POINT('Origin',(0.,0.,-10.));
#236=CARTESIAN_POINT('',(-10.,-1.22464679914735E-15,0.));
#237=CARTESIAN_POINT('',(-10.,1.22464679914735E-15,0.));
#238=CARTESIAN_POINT('Origin',(0.,0.,0.));
#239=CARTESIAN_POINT('Origin',(4.44089209850063E-15,5.55111512312578E-15,
-10.));
#240=CARTESIAN_POINT('',(-20.,20.,-10.));
#241=CARTESIAN_POINT('',(20.,20.,-10.));
#242=CARTESIAN_POINT('',(-20.,20.,-10.));
#243=CARTESIAN_POINT('',(20.,-20.,-10.));
#244=CARTESIAN_POINT('',(20.,20.,-10.));
#245=CARTESIAN_POINT('',(-20.,-20.,-10.));
#246=CARTESIAN_POINT('',(20.,-20.,-10.));
#247=CARTESIAN_POINT('',(-20.,-20.,-10.));
#248=CARTESIAN_POINT('Origin',(0.,0.,0.));
#249=CARTESIAN_POINT('',(-5.,-6.12323399573677E-16,10.));
#250=CARTESIAN_POINT('Origin',(0.,0.,10.));
#251=CARTESIAN_POINT('',(-5.,-6.12323399573677E-16,0.));
#252=CARTESIAN_POINT('Origin',(20.,-20.,0.));
#253=CARTESIAN_POINT('',(20.,20.,10.));
#254=CARTESIAN_POINT('',(20.,20.,0.));
#255=CARTESIAN_POINT('',(20.,-20.,10.));
#256=CARTESIAN_POINT('',(20.,20.,10.));
#257=CARTESIAN_POINT('',(20.,-20.,0.));
#258=CARTESIAN_POINT('Origin',(-20.,-20.,0.));
#259=CARTESIAN_POINT('',(-20.,-20.,10.));
#260=CARTESIAN_POINT('',(20.,-20.,10.));
#261=CARTESIAN_POINT('',(-20.,-20.,0.));
#262=CARTESIAN_POINT('Origin',(-20.,20.,0.));
#263=CARTESIAN_POINT('',(-20.,20.,10.));
#264=CARTESIAN_POINT('',(-20.,-20.,10.));
#265=CARTESIAN_POINT('',(-20.,20.,0.));
#266=CARTESIAN_POINT('Origin',(20.,20.,0.));
#267=CARTESIAN_POINT('',(-20.,20.,10.));
#268=CARTESIAN_POINT('Origin',(4.44089209850063E-15,5.55111512312578E-15,
10.));
#269=CARTESIAN_POINT('Origin',(4.44089209850063E-15,5.55111512312578E-15,
0.));
#270=UNCERTAINTY_MEASURE_WITH_UNIT(LENGTH_MEASURE(0.01),#274,
'DISTANCE_ACCURACY_VALUE',
'Maximum model space distance between geometric entities at asserted c
onnectivities');
#271=UNCERTAINTY_MEASURE_WITH_UNIT(LENGTH_MEASURE(0.01),#274,
'DISTANCE_ACCURACY_VALUE',
'Maximum model space distance between geometric entities at asserted c
onnectivities');
#272=(
GEOMETRIC_REPRESENTATION_CONTEXT(3)
GLOBAL_UNCERTAINTY_ASSIGNED_CONTEXT((#270))
GLOBAL_UNIT_ASSIGNED_CONTEXT((#274,#276,#277))
REPRESENTATION_CONTEXT('','3D')
);
#273=(
GEOMETRIC_REPRESENTATION_CONTEXT(3)
GLOBAL_UNCERTAINTY_ASSIGNED_CONTEXT((#271))
GLOBAL_UNIT_ASSIGNED_CONTEXT((#274,#276,#277))
REPRESENTATION_CONTEXT('','3D')
);
#274=(
LENGTH_UNIT()
NAMED_UNIT(*)
SI_UNIT(.MILLI.,.METRE.)
);
#275=(
LENGTH_UNIT()
NAMED_UNIT(*)
SI_UNIT($,.METRE.)
);
#276=(
NAMED_UNIT(*)
PLANE_ANGLE_UNIT()
SI_UNIT($,.RADIAN.)
);
#277=(
NAMED_UNIT(*)
SI_UNIT($,.STERADIAN.)
SOLID_ANGLE_UNIT()
);
#278=SHAPE_DEFINITION_REPRESENTATION(#279,#280);
#279=PRODUCT_DEFINITION_SHAPE('',$,#282);
#280=SHAPE_REPRESENTATION('',(#170),#272);
#281=PRODUCT_DEFINITION_CONTEXT('part definition',#286,'design');
#282=PRODUCT_DEFINITION('2026-09-30-08-56-45-624','membrane',#283,#281);
#283=PRODUCT_DEFINITION_FORMATION('',$,#288);
#284=PRODUCT_RELATED_PRODUCT_CATEGORY('membrane','membrane',(#288));
#285=APPLICATION_PROTOCOL_DEFINITION('international standard',
'automotive_design',2009,#286);
#286=APPLICATION_CONTEXT(
'Core Data for Automotive Mechanical Design Process');
#287=PRODUCT_CONTEXT('part definition',#286,'mechanical');
#288=PRODUCT('2026-09-30-08-56-45-624','membrane',$,(#287));
#289=PRESENTATION_STYLE_ASSIGNMENT((#290));
#290=SURFACE_STYLE_USAGE(.BOTH.,#291);
#291=SURFACE_SIDE_STYLE('',(#292));
#292=SURFACE_STYLE_FILL_AREA(#293);
#293=FILL_AREA_STYLE('Steel - Satin',(#294));
#294=FILL_AREA_STYLE_COLOUR('Steel - Satin',#295);
#295=COLOUR_RGB('Steel - Satin',0.627450980392157,0.627450980392157,0.627450980392157);
ENDSEC;
END-ISO-10303-21;
