ISO-10303-21;
HEADER;
/* Generated by software containing ST-Developer
 * from STEP Tools, Inc. (www.steptools.com) 
 */

FILE_DESCRIPTION(
/* description */ (''),
/* implementation_level */ '2;1');

FILE_NAME(
/* name */ 'stepped Reduction.step',
/* time_stamp */ '2026-09-30T09:11:42-07:00',
/* author */ (''),
/* organization */ (''),
/* preprocessor_version */ 'ST-DEVELOPER v20.1',
/* originating_system */ 'Autodesk Translation Framework v15.8.0.0',
/* authorisation */ '');

FILE_SCHEMA (('AUTOMOTIVE_DESIGN { 1 0 10303 214 3 1 1 }'));
ENDSEC;

DATA;
#10=MECHANICAL_DESIGN_GEOMETRIC_PRESENTATION_REPRESENTATION('',(#13),#979);
#11=SHAPE_REPRESENTATION_RELATIONSHIP('SRR','None',#986,#12);
#12=ADVANCED_BREP_SHAPE_REPRESENTATION('',(#14),#978);
#13=STYLED_ITEM('',(#995),#14);
#14=MANIFOLD_SOLID_BREP('Body1',#588);
#15=FACE_BOUND('',#91,.T.);
#16=FACE_BOUND('',#98,.T.);
#17=CYLINDRICAL_SURFACE('',#637,10.);
#18=CYLINDRICAL_SURFACE('',#641,5.);
#19=CIRCLE('',#604,5.);
#20=CIRCLE('',#606,5.);
#21=CIRCLE('',#609,5.);
#22=CIRCLE('',#611,5.);
#23=CIRCLE('',#614,5.);
#24=CIRCLE('',#616,5.);
#25=CIRCLE('',#619,5.);
#26=CIRCLE('',#621,5.);
#27=CIRCLE('',#629,10.);
#28=CIRCLE('',#630,10.);
#29=CIRCLE('',#634,10.);
#30=CIRCLE('',#636,10.);
#31=CIRCLE('',#638,10.);
#32=CIRCLE('',#639,10.);
#33=CIRCLE('',#642,5.);
#34=FACE_OUTER_BOUND('',#66,.T.);
#35=FACE_OUTER_BOUND('',#67,.T.);
#36=FACE_OUTER_BOUND('',#68,.T.);
#37=FACE_OUTER_BOUND('',#69,.T.);
#38=FACE_OUTER_BOUND('',#70,.T.);
#39=FACE_OUTER_BOUND('',#71,.T.);
#40=FACE_OUTER_BOUND('',#72,.T.);
#41=FACE_OUTER_BOUND('',#73,.T.);
#42=FACE_OUTER_BOUND('',#74,.T.);
#43=FACE_OUTER_BOUND('',#75,.T.);
#44=FACE_OUTER_BOUND('',#76,.T.);
#45=FACE_OUTER_BOUND('',#77,.T.);
#46=FACE_OUTER_BOUND('',#78,.T.);
#47=FACE_OUTER_BOUND('',#79,.T.);
#48=FACE_OUTER_BOUND('',#80,.T.);
#49=FACE_OUTER_BOUND('',#81,.T.);
#50=FACE_OUTER_BOUND('',#82,.T.);
#51=FACE_OUTER_BOUND('',#83,.T.);
#52=FACE_OUTER_BOUND('',#84,.T.);
#53=FACE_OUTER_BOUND('',#85,.T.);
#54=FACE_OUTER_BOUND('',#86,.T.);
#55=FACE_OUTER_BOUND('',#87,.T.);
#56=FACE_OUTER_BOUND('',#88,.T.);
#57=FACE_OUTER_BOUND('',#89,.T.);
#58=FACE_OUTER_BOUND('',#90,.T.);
#59=FACE_OUTER_BOUND('',#92,.T.);
#60=FACE_OUTER_BOUND('',#93,.T.);
#61=FACE_OUTER_BOUND('',#94,.T.);
#62=FACE_OUTER_BOUND('',#95,.T.);
#63=FACE_OUTER_BOUND('',#96,.T.);
#64=FACE_OUTER_BOUND('',#97,.T.);
#65=FACE_OUTER_BOUND('',#99,.T.);
#66=EDGE_LOOP('',(#364,#365,#366,#367,#368));
#67=EDGE_LOOP('',(#369,#370,#371));
#68=EDGE_LOOP('',(#372,#373,#374));
#69=EDGE_LOOP('',(#375,#376,#377,#378,#379));
#70=EDGE_LOOP('',(#380,#381,#382));
#71=EDGE_LOOP('',(#383,#384,#385));
#72=EDGE_LOOP('',(#386,#387,#388,#389,#390));
#73=EDGE_LOOP('',(#391,#392,#393));
#74=EDGE_LOOP('',(#394,#395,#396));
#75=EDGE_LOOP('',(#397,#398,#399,#400,#401));
#76=EDGE_LOOP('',(#402,#403,#404));
#77=EDGE_LOOP('',(#405,#406,#407));
#78=EDGE_LOOP('',(#408,#409,#410));
#79=EDGE_LOOP('',(#411,#412,#413));
#80=EDGE_LOOP('',(#414,#415,#416,#417,#418,#419,#420,#421,#422));
#81=EDGE_LOOP('',(#423,#424,#425,#426,#427,#428,#429,#430,#431));
#82=EDGE_LOOP('',(#432,#433,#434));
#83=EDGE_LOOP('',(#435,#436,#437));
#84=EDGE_LOOP('',(#438,#439,#440,#441,#442));
#85=EDGE_LOOP('',(#443,#444,#445,#446,#447,#448,#449,#450,#451,#452,#453,
#454,#455));
#86=EDGE_LOOP('',(#456,#457,#458,#459,#460,#461,#462,#463,#464,#465,#466,
#467,#468));
#87=EDGE_LOOP('',(#469,#470,#471,#472));
#88=EDGE_LOOP('',(#473,#474));
#89=EDGE_LOOP('',(#475,#476,#477,#478,#479,#480,#481,#482,#483,#484,#485,
#486));
#90=EDGE_LOOP('',(#487,#488,#489,#490));
#91=EDGE_LOOP('',(#491));
#92=EDGE_LOOP('',(#492,#493,#494,#495,#496,#497,#498,#499,#500,#501,#502));
#93=EDGE_LOOP('',(#503,#504,#505,#506));
#94=EDGE_LOOP('',(#507,#508,#509,#510));
#95=EDGE_LOOP('',(#511,#512,#513,#514));
#96=EDGE_LOOP('',(#515,#516,#517,#518));
#97=EDGE_LOOP('',(#519,#520,#521,#522));
#98=EDGE_LOOP('',(#523));
#99=EDGE_LOOP('',(#524,#525));
#100=LINE('',#815,#166);
#101=LINE('',#817,#167);
#102=LINE('',#819,#168);
#103=LINE('',#821,#169);
#104=LINE('',#822,#170);
#105=LINE('',#825,#171);
#106=LINE('',#829,#172);
#107=LINE('',#831,#173);
#108=LINE('',#836,#174);
#109=LINE('',#838,#175);
#110=LINE('',#839,#176);
#111=LINE('',#840,#177);
#112=LINE('',#843,#178);
#113=LINE('',#847,#179);
#114=LINE('',#849,#180);
#115=LINE('',#854,#181);
#116=LINE('',#856,#182);
#117=LINE('',#857,#183);
#118=LINE('',#858,#184);
#119=LINE('',#861,#185);
#120=LINE('',#866,#186);
#121=LINE('',#868,#187);
#122=LINE('',#872,#188);
#123=LINE('',#874,#189);
#124=LINE('',#875,#190);
#125=LINE('',#876,#191);
#126=LINE('',#879,#192);
#127=LINE('',#882,#193);
#128=LINE('',#886,#194);
#129=LINE('',#887,#195);
#130=LINE('',#890,#196);
#131=LINE('',#891,#197);
#132=LINE('',#895,#198);
#133=LINE('',#896,#199);
#134=LINE('',#898,#200);
#135=LINE('',#899,#201);
#136=LINE('',#903,#202);
#137=LINE('',#905,#203);
#138=LINE('',#906,#204);
#139=LINE('',#907,#205);
#140=LINE('',#909,#206);
#141=LINE('',#911,#207);
#142=LINE('',#914,#208);
#143=LINE('',#919,#209);
#144=LINE('',#923,#210);
#145=LINE('',#924,#211);
#146=LINE('',#926,#212);
#147=LINE('',#927,#213);
#148=LINE('',#931,#214);
#149=LINE('',#933,#215);
#150=LINE('',#934,#216);
#151=LINE('',#935,#217);
#152=LINE('',#943,#218);
#153=LINE('',#948,#219);
#154=LINE('',#950,#220);
#155=LINE('',#952,#221);
#156=LINE('',#953,#222);
#157=LINE('',#957,#223);
#158=LINE('',#960,#224);
#159=LINE('',#962,#225);
#160=LINE('',#963,#226);
#161=LINE('',#966,#227);
#162=LINE('',#967,#228);
#163=LINE('',#970,#229);
#164=LINE('',#971,#230);
#165=LINE('',#973,#231);
#166=VECTOR('',#653,10.);
#167=VECTOR('',#654,10.);
#168=VECTOR('',#655,10.);
#169=VECTOR('',#656,10.);
#170=VECTOR('',#657,10.);
#171=VECTOR('',#660,10.);
#172=VECTOR('',#665,10.);
#173=VECTOR('',#666,10.);
#174=VECTOR('',#671,10.);
#175=VECTOR('',#672,10.);
#176=VECTOR('',#673,10.);
#177=VECTOR('',#674,10.);
#178=VECTOR('',#677,10.);
#179=VECTOR('',#682,10.);
#180=VECTOR('',#683,10.);
#181=VECTOR('',#688,10.);
#182=VECTOR('',#689,10.);
#183=VECTOR('',#690,10.);
#184=VECTOR('',#691,10.);
#185=VECTOR('',#694,10.);
#186=VECTOR('',#699,10.);
#187=VECTOR('',#702,10.);
#188=VECTOR('',#705,10.);
#189=VECTOR('',#706,10.);
#190=VECTOR('',#707,10.);
#191=VECTOR('',#708,10.);
#192=VECTOR('',#711,10.);
#193=VECTOR('',#716,10.);
#194=VECTOR('',#721,10.);
#195=VECTOR('',#722,10.);
#196=VECTOR('',#725,10.);
#197=VECTOR('',#726,10.);
#198=VECTOR('',#729,10.);
#199=VECTOR('',#730,10.);
#200=VECTOR('',#731,10.);
#201=VECTOR('',#732,10.);
#202=VECTOR('',#735,10.);
#203=VECTOR('',#736,10.);
#204=VECTOR('',#737,10.);
#205=VECTOR('',#738,10.);
#206=VECTOR('',#741,10.);
#207=VECTOR('',#744,10.);
#208=VECTOR('',#747,10.);
#209=VECTOR('',#752,10.);
#210=VECTOR('',#755,10.);
#211=VECTOR('',#756,10.);
#212=VECTOR('',#757,10.);
#213=VECTOR('',#758,10.);
#214=VECTOR('',#761,10.);
#215=VECTOR('',#762,10.);
#216=VECTOR('',#763,10.);
#217=VECTOR('',#764,10.);
#218=VECTOR('',#777,10.);
#219=VECTOR('',#782,10.);
#220=VECTOR('',#783,10.);
#221=VECTOR('',#784,10.);
#222=VECTOR('',#785,10.);
#223=VECTOR('',#790,5.);
#224=VECTOR('',#793,10.);
#225=VECTOR('',#794,10.);
#226=VECTOR('',#795,10.);
#227=VECTOR('',#798,10.);
#228=VECTOR('',#799,10.);
#229=VECTOR('',#802,10.);
#230=VECTOR('',#803,10.);
#231=VECTOR('',#806,10.);
#232=VERTEX_POINT('',#813);
#233=VERTEX_POINT('',#814);
#234=VERTEX_POINT('',#816);
#235=VERTEX_POINT('',#818);
#236=VERTEX_POINT('',#820);
#237=VERTEX_POINT('',#824);
#238=VERTEX_POINT('',#828);
#239=VERTEX_POINT('',#830);
#240=VERTEX_POINT('',#834);
#241=VERTEX_POINT('',#835);
#242=VERTEX_POINT('',#837);
#243=VERTEX_POINT('',#842);
#244=VERTEX_POINT('',#846);
#245=VERTEX_POINT('',#848);
#246=VERTEX_POINT('',#852);
#247=VERTEX_POINT('',#853);
#248=VERTEX_POINT('',#855);
#249=VERTEX_POINT('',#860);
#250=VERTEX_POINT('',#864);
#251=VERTEX_POINT('',#865);
#252=VERTEX_POINT('',#870);
#253=VERTEX_POINT('',#871);
#254=VERTEX_POINT('',#873);
#255=VERTEX_POINT('',#878);
#256=VERTEX_POINT('',#885);
#257=VERTEX_POINT('',#889);
#258=VERTEX_POINT('',#893);
#259=VERTEX_POINT('',#894);
#260=VERTEX_POINT('',#897);
#261=VERTEX_POINT('',#901);
#262=VERTEX_POINT('',#902);
#263=VERTEX_POINT('',#904);
#264=VERTEX_POINT('',#913);
#265=VERTEX_POINT('',#915);
#266=VERTEX_POINT('',#917);
#267=VERTEX_POINT('',#921);
#268=VERTEX_POINT('',#922);
#269=VERTEX_POINT('',#925);
#270=VERTEX_POINT('',#929);
#271=VERTEX_POINT('',#930);
#272=VERTEX_POINT('',#932);
#273=VERTEX_POINT('',#941);
#274=VERTEX_POINT('',#946);
#275=VERTEX_POINT('',#947);
#276=VERTEX_POINT('',#949);
#277=VERTEX_POINT('',#951);
#278=VERTEX_POINT('',#955);
#279=VERTEX_POINT('',#959);
#280=VERTEX_POINT('',#961);
#281=VERTEX_POINT('',#965);
#282=VERTEX_POINT('',#969);
#283=EDGE_CURVE('',#232,#233,#100,.T.);
#284=EDGE_CURVE('',#232,#234,#101,.T.);
#285=EDGE_CURVE('',#234,#235,#102,.T.);
#286=EDGE_CURVE('',#235,#236,#103,.T.);
#287=EDGE_CURVE('',#233,#236,#104,.T.);
#288=EDGE_CURVE('',#237,#234,#105,.T.);
#289=EDGE_CURVE('',#235,#237,#19,.T.);
#290=EDGE_CURVE('',#238,#237,#106,.T.);
#291=EDGE_CURVE('',#239,#238,#107,.T.);
#292=EDGE_CURVE('',#237,#239,#20,.T.);
#293=EDGE_CURVE('',#240,#241,#108,.T.);
#294=EDGE_CURVE('',#240,#242,#109,.T.);
#295=EDGE_CURVE('',#242,#239,#110,.T.);
#296=EDGE_CURVE('',#241,#238,#111,.T.);
#297=EDGE_CURVE('',#243,#242,#112,.T.);
#298=EDGE_CURVE('',#239,#243,#21,.T.);
#299=EDGE_CURVE('',#244,#243,#113,.T.);
#300=EDGE_CURVE('',#245,#244,#114,.T.);
#301=EDGE_CURVE('',#243,#245,#22,.T.);
#302=EDGE_CURVE('',#246,#247,#115,.T.);
#303=EDGE_CURVE('',#246,#248,#116,.T.);
#304=EDGE_CURVE('',#248,#245,#117,.T.);
#305=EDGE_CURVE('',#247,#244,#118,.T.);
#306=EDGE_CURVE('',#249,#248,#119,.T.);
#307=EDGE_CURVE('',#245,#249,#23,.T.);
#308=EDGE_CURVE('',#250,#251,#120,.T.);
#309=EDGE_CURVE('',#249,#250,#24,.T.);
#310=EDGE_CURVE('',#251,#249,#121,.T.);
#311=EDGE_CURVE('',#252,#253,#122,.T.);
#312=EDGE_CURVE('',#252,#254,#123,.T.);
#313=EDGE_CURVE('',#254,#250,#124,.T.);
#314=EDGE_CURVE('',#253,#251,#125,.T.);
#315=EDGE_CURVE('',#255,#254,#126,.T.);
#316=EDGE_CURVE('',#250,#255,#25,.T.);
#317=EDGE_CURVE('',#236,#255,#127,.T.);
#318=EDGE_CURVE('',#255,#235,#26,.T.);
#319=EDGE_CURVE('',#256,#241,#128,.T.);
#320=EDGE_CURVE('',#240,#256,#129,.T.);
#321=EDGE_CURVE('',#257,#233,#130,.T.);
#322=EDGE_CURVE('',#232,#257,#131,.T.);
#323=EDGE_CURVE('',#258,#259,#132,.T.);
#324=EDGE_CURVE('',#258,#257,#133,.T.);
#325=EDGE_CURVE('',#252,#260,#134,.T.);
#326=EDGE_CURVE('',#259,#260,#135,.T.);
#327=EDGE_CURVE('',#261,#262,#136,.T.);
#328=EDGE_CURVE('',#261,#263,#137,.T.);
#329=EDGE_CURVE('',#263,#247,#138,.T.);
#330=EDGE_CURVE('',#262,#256,#139,.T.);
#331=EDGE_CURVE('',#246,#263,#140,.T.);
#332=EDGE_CURVE('',#260,#253,#141,.T.);
#333=EDGE_CURVE('',#264,#262,#142,.T.);
#334=EDGE_CURVE('',#265,#264,#27,.T.);
#335=EDGE_CURVE('',#266,#265,#28,.T.);
#336=EDGE_CURVE('',#261,#266,#143,.T.);
#337=EDGE_CURVE('',#267,#268,#144,.T.);
#338=EDGE_CURVE('',#267,#264,#145,.T.);
#339=EDGE_CURVE('',#258,#269,#146,.T.);
#340=EDGE_CURVE('',#268,#269,#147,.T.);
#341=EDGE_CURVE('',#270,#271,#148,.T.);
#342=EDGE_CURVE('',#270,#272,#149,.T.);
#343=EDGE_CURVE('',#272,#259,#150,.T.);
#344=EDGE_CURVE('',#271,#266,#151,.T.);
#345=EDGE_CURVE('',#269,#272,#29,.T.);
#346=EDGE_CURVE('',#268,#267,#30,.T.);
#347=EDGE_CURVE('',#273,#273,#31,.T.);
#348=EDGE_CURVE('',#273,#265,#152,.T.);
#349=EDGE_CURVE('',#271,#270,#32,.T.);
#350=EDGE_CURVE('',#274,#275,#153,.T.);
#351=EDGE_CURVE('',#275,#276,#154,.T.);
#352=EDGE_CURVE('',#276,#277,#155,.T.);
#353=EDGE_CURVE('',#277,#274,#156,.T.);
#354=EDGE_CURVE('',#278,#278,#33,.T.);
#355=EDGE_CURVE('',#278,#243,#157,.T.);
#356=EDGE_CURVE('',#279,#275,#158,.T.);
#357=EDGE_CURVE('',#280,#279,#159,.T.);
#358=EDGE_CURVE('',#276,#280,#160,.T.);
#359=EDGE_CURVE('',#281,#280,#161,.T.);
#360=EDGE_CURVE('',#277,#281,#162,.T.);
#361=EDGE_CURVE('',#282,#281,#163,.T.);
#362=EDGE_CURVE('',#274,#282,#164,.T.);
#363=EDGE_CURVE('',#279,#282,#165,.T.);
#364=ORIENTED_EDGE('',*,*,#283,.F.);
#365=ORIENTED_EDGE('',*,*,#284,.T.);
#366=ORIENTED_EDGE('',*,*,#285,.T.);
#367=ORIENTED_EDGE('',*,*,#286,.T.);
#368=ORIENTED_EDGE('',*,*,#287,.F.);
#369=ORIENTED_EDGE('',*,*,#285,.F.);
#370=ORIENTED_EDGE('',*,*,#288,.F.);
#371=ORIENTED_EDGE('',*,*,#289,.F.);
#372=ORIENTED_EDGE('',*,*,#290,.F.);
#373=ORIENTED_EDGE('',*,*,#291,.F.);
#374=ORIENTED_EDGE('',*,*,#292,.F.);
#375=ORIENTED_EDGE('',*,*,#293,.F.);
#376=ORIENTED_EDGE('',*,*,#294,.T.);
#377=ORIENTED_EDGE('',*,*,#295,.T.);
#378=ORIENTED_EDGE('',*,*,#291,.T.);
#379=ORIENTED_EDGE('',*,*,#296,.F.);
#380=ORIENTED_EDGE('',*,*,#297,.F.);
#381=ORIENTED_EDGE('',*,*,#298,.F.);
#382=ORIENTED_EDGE('',*,*,#295,.F.);
#383=ORIENTED_EDGE('',*,*,#299,.F.);
#384=ORIENTED_EDGE('',*,*,#300,.F.);
#385=ORIENTED_EDGE('',*,*,#301,.F.);
#386=ORIENTED_EDGE('',*,*,#302,.F.);
#387=ORIENTED_EDGE('',*,*,#303,.T.);
#388=ORIENTED_EDGE('',*,*,#304,.T.);
#389=ORIENTED_EDGE('',*,*,#300,.T.);
#390=ORIENTED_EDGE('',*,*,#305,.F.);
#391=ORIENTED_EDGE('',*,*,#304,.F.);
#392=ORIENTED_EDGE('',*,*,#306,.F.);
#393=ORIENTED_EDGE('',*,*,#307,.F.);
#394=ORIENTED_EDGE('',*,*,#308,.F.);
#395=ORIENTED_EDGE('',*,*,#309,.F.);
#396=ORIENTED_EDGE('',*,*,#310,.F.);
#397=ORIENTED_EDGE('',*,*,#311,.F.);
#398=ORIENTED_EDGE('',*,*,#312,.T.);
#399=ORIENTED_EDGE('',*,*,#313,.T.);
#400=ORIENTED_EDGE('',*,*,#308,.T.);
#401=ORIENTED_EDGE('',*,*,#314,.F.);
#402=ORIENTED_EDGE('',*,*,#313,.F.);
#403=ORIENTED_EDGE('',*,*,#315,.F.);
#404=ORIENTED_EDGE('',*,*,#316,.F.);
#405=ORIENTED_EDGE('',*,*,#317,.F.);
#406=ORIENTED_EDGE('',*,*,#286,.F.);
#407=ORIENTED_EDGE('',*,*,#318,.F.);
#408=ORIENTED_EDGE('',*,*,#293,.T.);
#409=ORIENTED_EDGE('',*,*,#319,.F.);
#410=ORIENTED_EDGE('',*,*,#320,.F.);
#411=ORIENTED_EDGE('',*,*,#283,.T.);
#412=ORIENTED_EDGE('',*,*,#321,.F.);
#413=ORIENTED_EDGE('',*,*,#322,.F.);
#414=ORIENTED_EDGE('',*,*,#323,.F.);
#415=ORIENTED_EDGE('',*,*,#324,.T.);
#416=ORIENTED_EDGE('',*,*,#321,.T.);
#417=ORIENTED_EDGE('',*,*,#287,.T.);
#418=ORIENTED_EDGE('',*,*,#317,.T.);
#419=ORIENTED_EDGE('',*,*,#315,.T.);
#420=ORIENTED_EDGE('',*,*,#312,.F.);
#421=ORIENTED_EDGE('',*,*,#325,.T.);
#422=ORIENTED_EDGE('',*,*,#326,.F.);
#423=ORIENTED_EDGE('',*,*,#327,.F.);
#424=ORIENTED_EDGE('',*,*,#328,.T.);
#425=ORIENTED_EDGE('',*,*,#329,.T.);
#426=ORIENTED_EDGE('',*,*,#305,.T.);
#427=ORIENTED_EDGE('',*,*,#299,.T.);
#428=ORIENTED_EDGE('',*,*,#297,.T.);
#429=ORIENTED_EDGE('',*,*,#294,.F.);
#430=ORIENTED_EDGE('',*,*,#320,.T.);
#431=ORIENTED_EDGE('',*,*,#330,.F.);
#432=ORIENTED_EDGE('',*,*,#302,.T.);
#433=ORIENTED_EDGE('',*,*,#329,.F.);
#434=ORIENTED_EDGE('',*,*,#331,.F.);
#435=ORIENTED_EDGE('',*,*,#311,.T.);
#436=ORIENTED_EDGE('',*,*,#332,.F.);
#437=ORIENTED_EDGE('',*,*,#325,.F.);
#438=ORIENTED_EDGE('',*,*,#327,.T.);
#439=ORIENTED_EDGE('',*,*,#333,.F.);
#440=ORIENTED_EDGE('',*,*,#334,.F.);
#441=ORIENTED_EDGE('',*,*,#335,.F.);
#442=ORIENTED_EDGE('',*,*,#336,.F.);
#443=ORIENTED_EDGE('',*,*,#337,.F.);
#444=ORIENTED_EDGE('',*,*,#338,.T.);
#445=ORIENTED_EDGE('',*,*,#333,.T.);
#446=ORIENTED_EDGE('',*,*,#330,.T.);
#447=ORIENTED_EDGE('',*,*,#319,.T.);
#448=ORIENTED_EDGE('',*,*,#296,.T.);
#449=ORIENTED_EDGE('',*,*,#290,.T.);
#450=ORIENTED_EDGE('',*,*,#288,.T.);
#451=ORIENTED_EDGE('',*,*,#284,.F.);
#452=ORIENTED_EDGE('',*,*,#322,.T.);
#453=ORIENTED_EDGE('',*,*,#324,.F.);
#454=ORIENTED_EDGE('',*,*,#339,.T.);
#455=ORIENTED_EDGE('',*,*,#340,.F.);
#456=ORIENTED_EDGE('',*,*,#341,.F.);
#457=ORIENTED_EDGE('',*,*,#342,.T.);
#458=ORIENTED_EDGE('',*,*,#343,.T.);
#459=ORIENTED_EDGE('',*,*,#326,.T.);
#460=ORIENTED_EDGE('',*,*,#332,.T.);
#461=ORIENTED_EDGE('',*,*,#314,.T.);
#462=ORIENTED_EDGE('',*,*,#310,.T.);
#463=ORIENTED_EDGE('',*,*,#306,.T.);
#464=ORIENTED_EDGE('',*,*,#303,.F.);
#465=ORIENTED_EDGE('',*,*,#331,.T.);
#466=ORIENTED_EDGE('',*,*,#328,.F.);
#467=ORIENTED_EDGE('',*,*,#336,.T.);
#468=ORIENTED_EDGE('',*,*,#344,.F.);
#469=ORIENTED_EDGE('',*,*,#323,.T.);
#470=ORIENTED_EDGE('',*,*,#343,.F.);
#471=ORIENTED_EDGE('',*,*,#345,.F.);
#472=ORIENTED_EDGE('',*,*,#339,.F.);
#473=ORIENTED_EDGE('',*,*,#337,.T.);
#474=ORIENTED_EDGE('',*,*,#346,.T.);
#475=ORIENTED_EDGE('',*,*,#347,.F.);
#476=ORIENTED_EDGE('',*,*,#348,.T.);
#477=ORIENTED_EDGE('',*,*,#334,.T.);
#478=ORIENTED_EDGE('',*,*,#338,.F.);
#479=ORIENTED_EDGE('',*,*,#346,.F.);
#480=ORIENTED_EDGE('',*,*,#340,.T.);
#481=ORIENTED_EDGE('',*,*,#345,.T.);
#482=ORIENTED_EDGE('',*,*,#342,.F.);
#483=ORIENTED_EDGE('',*,*,#349,.F.);
#484=ORIENTED_EDGE('',*,*,#344,.T.);
#485=ORIENTED_EDGE('',*,*,#335,.T.);
#486=ORIENTED_EDGE('',*,*,#348,.F.);
#487=ORIENTED_EDGE('',*,*,#350,.T.);
#488=ORIENTED_EDGE('',*,*,#351,.T.);
#489=ORIENTED_EDGE('',*,*,#352,.T.);
#490=ORIENTED_EDGE('',*,*,#353,.T.);
#491=ORIENTED_EDGE('',*,*,#347,.T.);
#492=ORIENTED_EDGE('',*,*,#354,.F.);
#493=ORIENTED_EDGE('',*,*,#355,.T.);
#494=ORIENTED_EDGE('',*,*,#301,.T.);
#495=ORIENTED_EDGE('',*,*,#307,.T.);
#496=ORIENTED_EDGE('',*,*,#309,.T.);
#497=ORIENTED_EDGE('',*,*,#316,.T.);
#498=ORIENTED_EDGE('',*,*,#318,.T.);
#499=ORIENTED_EDGE('',*,*,#289,.T.);
#500=ORIENTED_EDGE('',*,*,#292,.T.);
#501=ORIENTED_EDGE('',*,*,#298,.T.);
#502=ORIENTED_EDGE('',*,*,#355,.F.);
#503=ORIENTED_EDGE('',*,*,#356,.F.);
#504=ORIENTED_EDGE('',*,*,#357,.F.);
#505=ORIENTED_EDGE('',*,*,#358,.F.);
#506=ORIENTED_EDGE('',*,*,#351,.F.);
#507=ORIENTED_EDGE('',*,*,#358,.T.);
#508=ORIENTED_EDGE('',*,*,#359,.F.);
#509=ORIENTED_EDGE('',*,*,#360,.F.);
#510=ORIENTED_EDGE('',*,*,#352,.F.);
#511=ORIENTED_EDGE('',*,*,#360,.T.);
#512=ORIENTED_EDGE('',*,*,#361,.F.);
#513=ORIENTED_EDGE('',*,*,#362,.F.);
#514=ORIENTED_EDGE('',*,*,#353,.F.);
#515=ORIENTED_EDGE('',*,*,#362,.T.);
#516=ORIENTED_EDGE('',*,*,#363,.F.);
#517=ORIENTED_EDGE('',*,*,#356,.T.);
#518=ORIENTED_EDGE('',*,*,#350,.F.);
#519=ORIENTED_EDGE('',*,*,#363,.T.);
#520=ORIENTED_EDGE('',*,*,#361,.T.);
#521=ORIENTED_EDGE('',*,*,#359,.T.);
#522=ORIENTED_EDGE('',*,*,#357,.T.);
#523=ORIENTED_EDGE('',*,*,#354,.T.);
#524=ORIENTED_EDGE('',*,*,#341,.T.);
#525=ORIENTED_EDGE('',*,*,#349,.T.);
#526=PLANE('',#602);
#527=PLANE('',#603);
#528=PLANE('',#605);
#529=PLANE('',#607);
#530=PLANE('',#608);
#531=PLANE('',#610);
#532=PLANE('',#612);
#533=PLANE('',#613);
#534=PLANE('',#615);
#535=PLANE('',#617);
#536=PLANE('',#618);
#537=PLANE('',#620);
#538=PLANE('',#622);
#539=PLANE('',#623);
#540=PLANE('',#624);
#541=PLANE('',#625);
#542=PLANE('',#626);
#543=PLANE('',#627);
#544=PLANE('',#628);
#545=PLANE('',#631);
#546=PLANE('',#632);
#547=PLANE('',#633);
#548=PLANE('',#635);
#549=PLANE('',#640);
#550=PLANE('',#643);
#551=PLANE('',#644);
#552=PLANE('',#645);
#553=PLANE('',#646);
#554=PLANE('',#647);
#555=PLANE('',#648);
#556=ADVANCED_FACE('',(#34),#526,.F.);
#557=ADVANCED_FACE('',(#35),#527,.T.);
#558=ADVANCED_FACE('',(#36),#528,.T.);
#559=ADVANCED_FACE('',(#37),#529,.F.);
#560=ADVANCED_FACE('',(#38),#530,.T.);
#561=ADVANCED_FACE('',(#39),#531,.T.);
#562=ADVANCED_FACE('',(#40),#532,.F.);
#563=ADVANCED_FACE('',(#41),#533,.T.);
#564=ADVANCED_FACE('',(#42),#534,.T.);
#565=ADVANCED_FACE('',(#43),#535,.F.);
#566=ADVANCED_FACE('',(#44),#536,.T.);
#567=ADVANCED_FACE('',(#45),#537,.T.);
#568=ADVANCED_FACE('',(#46),#538,.T.);
#569=ADVANCED_FACE('',(#47),#539,.T.);
#570=ADVANCED_FACE('',(#48),#540,.F.);
#571=ADVANCED_FACE('',(#49),#541,.F.);
#572=ADVANCED_FACE('',(#50),#542,.T.);
#573=ADVANCED_FACE('',(#51),#543,.T.);
#574=ADVANCED_FACE('',(#52),#544,.T.);
#575=ADVANCED_FACE('',(#53),#545,.F.);
#576=ADVANCED_FACE('',(#54),#546,.F.);
#577=ADVANCED_FACE('',(#55),#547,.T.);
#578=ADVANCED_FACE('',(#56),#548,.F.);
#579=ADVANCED_FACE('',(#57),#17,.F.);
#580=ADVANCED_FACE('',(#58,#15),#549,.F.);
#581=ADVANCED_FACE('',(#59),#18,.F.);
#582=ADVANCED_FACE('',(#60),#550,.T.);
#583=ADVANCED_FACE('',(#61),#551,.T.);
#584=ADVANCED_FACE('',(#62),#552,.T.);
#585=ADVANCED_FACE('',(#63),#553,.T.);
#586=ADVANCED_FACE('',(#64,#16),#554,.T.);
#587=ADVANCED_FACE('',(#65),#555,.F.);
#588=CLOSED_SHELL('',(#556,#557,#558,#559,#560,#561,#562,#563,#564,#565,
#566,#567,#568,#569,#570,#571,#572,#573,#574,#575,#576,#577,#578,#579,#580,
#581,#582,#583,#584,#585,#586,#587));
#589=DERIVED_UNIT_ELEMENT(#591,1.);
#590=DERIVED_UNIT_ELEMENT(#981,-3.);
#591=(
MASS_UNIT()
NAMED_UNIT(*)
SI_UNIT(.KILO.,.GRAM.)
);
#592=DERIVED_UNIT((#589,#590));
#593=MEASURE_REPRESENTATION_ITEM('density measure',
POSITIVE_RATIO_MEASURE(7850.),#592);
#594=PROPERTY_DEFINITION_REPRESENTATION(#599,#596);
#595=PROPERTY_DEFINITION_REPRESENTATION(#600,#597);
#596=REPRESENTATION('material name',(#598),#978);
#597=REPRESENTATION('density',(#593),#978);
#598=DESCRIPTIVE_REPRESENTATION_ITEM('Steel','Steel');
#599=PROPERTY_DEFINITION('material property','material name',#988);
#600=PROPERTY_DEFINITION('material property','density of part',#988);
#601=AXIS2_PLACEMENT_3D('',#811,#649,#650);
#602=AXIS2_PLACEMENT_3D('',#812,#651,#652);
#603=AXIS2_PLACEMENT_3D('',#823,#658,#659);
#604=AXIS2_PLACEMENT_3D('',#826,#661,#662);
#605=AXIS2_PLACEMENT_3D('',#827,#663,#664);
#606=AXIS2_PLACEMENT_3D('',#832,#667,#668);
#607=AXIS2_PLACEMENT_3D('',#833,#669,#670);
#608=AXIS2_PLACEMENT_3D('',#841,#675,#676);
#609=AXIS2_PLACEMENT_3D('',#844,#678,#679);
#610=AXIS2_PLACEMENT_3D('',#845,#680,#681);
#611=AXIS2_PLACEMENT_3D('',#850,#684,#685);
#612=AXIS2_PLACEMENT_3D('',#851,#686,#687);
#613=AXIS2_PLACEMENT_3D('',#859,#692,#693);
#614=AXIS2_PLACEMENT_3D('',#862,#695,#696);
#615=AXIS2_PLACEMENT_3D('',#863,#697,#698);
#616=AXIS2_PLACEMENT_3D('',#867,#700,#701);
#617=AXIS2_PLACEMENT_3D('',#869,#703,#704);
#618=AXIS2_PLACEMENT_3D('',#877,#709,#710);
#619=AXIS2_PLACEMENT_3D('',#880,#712,#713);
#620=AXIS2_PLACEMENT_3D('',#881,#714,#715);
#621=AXIS2_PLACEMENT_3D('',#883,#717,#718);
#622=AXIS2_PLACEMENT_3D('',#884,#719,#720);
#623=AXIS2_PLACEMENT_3D('',#888,#723,#724);
#624=AXIS2_PLACEMENT_3D('',#892,#727,#728);
#625=AXIS2_PLACEMENT_3D('',#900,#733,#734);
#626=AXIS2_PLACEMENT_3D('',#908,#739,#740);
#627=AXIS2_PLACEMENT_3D('',#910,#742,#743);
#628=AXIS2_PLACEMENT_3D('',#912,#745,#746);
#629=AXIS2_PLACEMENT_3D('',#916,#748,#749);
#630=AXIS2_PLACEMENT_3D('',#918,#750,#751);
#631=AXIS2_PLACEMENT_3D('',#920,#753,#754);
#632=AXIS2_PLACEMENT_3D('',#928,#759,#760);
#633=AXIS2_PLACEMENT_3D('',#936,#765,#766);
#634=AXIS2_PLACEMENT_3D('',#937,#767,#768);
#635=AXIS2_PLACEMENT_3D('',#938,#769,#770);
#636=AXIS2_PLACEMENT_3D('',#939,#771,#772);
#637=AXIS2_PLACEMENT_3D('',#940,#773,#774);
#638=AXIS2_PLACEMENT_3D('',#942,#775,#776);
#639=AXIS2_PLACEMENT_3D('',#944,#778,#779);
#640=AXIS2_PLACEMENT_3D('',#945,#780,#781);
#641=AXIS2_PLACEMENT_3D('',#954,#786,#787);
#642=AXIS2_PLACEMENT_3D('',#956,#788,#789);
#643=AXIS2_PLACEMENT_3D('',#958,#791,#792);
#644=AXIS2_PLACEMENT_3D('',#964,#796,#797);
#645=AXIS2_PLACEMENT_3D('',#968,#800,#801);
#646=AXIS2_PLACEMENT_3D('',#972,#804,#805);
#647=AXIS2_PLACEMENT_3D('',#974,#807,#808);
#648=AXIS2_PLACEMENT_3D('',#975,#809,#810);
#649=DIRECTION('axis',(0.,0.,1.));
#650=DIRECTION('refdir',(1.,0.,0.));
#651=DIRECTION('center_axis',(0.707106781186548,-0.707106781186548,0.));
#652=DIRECTION('ref_axis',(0.707106781186548,0.707106781186548,0.));
#653=DIRECTION('',(0.707106781186548,0.707106781186548,0.));
#654=DIRECTION('',(0.,0.,1.));
#655=DIRECTION('',(0.707106781186548,0.707106781186548,0.));
#656=DIRECTION('',(0.707106781186547,0.707106781186547,0.));
#657=DIRECTION('',(0.,0.,1.));
#658=DIRECTION('center_axis',(0.,0.,-1.));
#659=DIRECTION('ref_axis',(1.,0.,0.));
#660=DIRECTION('',(1.,2.22044604925031E-16,0.));
#661=DIRECTION('center_axis',(0.,0.,-1.));
#662=DIRECTION('ref_axis',(1.,0.,0.));
#663=DIRECTION('center_axis',(0.,0.,-1.));
#664=DIRECTION('ref_axis',(1.,0.,0.));
#665=DIRECTION('',(1.,0.,0.));
#666=DIRECTION('',(0.707106781186547,-0.707106781186548,0.));
#667=DIRECTION('center_axis',(0.,0.,-1.));
#668=DIRECTION('ref_axis',(1.,0.,0.));
#669=DIRECTION('center_axis',(-0.707106781186548,-0.707106781186547,0.));
#670=DIRECTION('ref_axis',(0.707106781186547,-0.707106781186548,0.));
#671=DIRECTION('',(0.707106781186547,-0.707106781186548,0.));
#672=DIRECTION('',(0.,0.,1.));
#673=DIRECTION('',(0.707106781186547,-0.707106781186548,0.));
#674=DIRECTION('',(0.,0.,1.));
#675=DIRECTION('center_axis',(0.,0.,-1.));
#676=DIRECTION('ref_axis',(1.,0.,0.));
#677=DIRECTION('',(1.11022302462516E-16,-1.,0.));
#678=DIRECTION('center_axis',(0.,0.,-1.));
#679=DIRECTION('ref_axis',(1.,0.,0.));
#680=DIRECTION('center_axis',(0.,0.,-1.));
#681=DIRECTION('ref_axis',(1.,0.,0.));
#682=DIRECTION('',(-6.66133814775094E-16,-1.,0.));
#683=DIRECTION('',(-0.707106781186548,-0.707106781186547,0.));
#684=DIRECTION('center_axis',(0.,0.,-1.));
#685=DIRECTION('ref_axis',(1.,0.,0.));
#686=DIRECTION('center_axis',(-0.707106781186547,0.707106781186548,0.));
#687=DIRECTION('ref_axis',(-0.707106781186548,-0.707106781186547,0.));
#688=DIRECTION('',(-0.707106781186548,-0.707106781186547,0.));
#689=DIRECTION('',(0.,0.,1.));
#690=DIRECTION('',(-0.707106781186548,-0.707106781186547,0.));
#691=DIRECTION('',(0.,0.,1.));
#692=DIRECTION('center_axis',(0.,0.,-1.));
#693=DIRECTION('ref_axis',(1.,0.,0.));
#694=DIRECTION('',(-1.,2.22044604925031E-16,0.));
#695=DIRECTION('center_axis',(0.,0.,-1.));
#696=DIRECTION('ref_axis',(1.,0.,0.));
#697=DIRECTION('center_axis',(0.,0.,-1.));
#698=DIRECTION('ref_axis',(1.,0.,0.));
#699=DIRECTION('',(-0.707106781186547,0.707106781186548,0.));
#700=DIRECTION('center_axis',(0.,0.,-1.));
#701=DIRECTION('ref_axis',(1.,0.,0.));
#702=DIRECTION('',(-1.,-2.22044604925032E-16,0.));
#703=DIRECTION('center_axis',(0.707106781186548,0.707106781186547,0.));
#704=DIRECTION('ref_axis',(-0.707106781186547,0.707106781186548,0.));
#705=DIRECTION('',(-0.707106781186547,0.707106781186548,0.));
#706=DIRECTION('',(0.,0.,1.));
#707=DIRECTION('',(-0.707106781186547,0.707106781186548,0.));
#708=DIRECTION('',(0.,0.,1.));
#709=DIRECTION('center_axis',(0.,0.,-1.));
#710=DIRECTION('ref_axis',(1.,0.,0.));
#711=DIRECTION('',(0.,1.,0.));
#712=DIRECTION('center_axis',(0.,0.,-1.));
#713=DIRECTION('ref_axis',(1.,0.,0.));
#714=DIRECTION('center_axis',(0.,0.,-1.));
#715=DIRECTION('ref_axis',(1.,0.,0.));
#716=DIRECTION('',(0.,1.,0.));
#717=DIRECTION('center_axis',(0.,0.,-1.));
#718=DIRECTION('ref_axis',(1.,0.,0.));
#719=DIRECTION('center_axis',(0.,0.,-1.));
#720=DIRECTION('ref_axis',(1.,0.,0.));
#721=DIRECTION('',(1.,-1.92296268638356E-16,0.));
#722=DIRECTION('',(1.11022302462516E-16,-1.,0.));
#723=DIRECTION('center_axis',(0.,0.,-1.));
#724=DIRECTION('ref_axis',(1.,0.,0.));
#725=DIRECTION('',(0.,1.,0.));
#726=DIRECTION('',(1.,1.92296268638356E-16,0.));
#727=DIRECTION('center_axis',(1.,0.,0.));
#728=DIRECTION('ref_axis',(0.,1.,0.));
#729=DIRECTION('',(0.,1.,0.));
#730=DIRECTION('',(0.,0.,1.));
#731=DIRECTION('',(0.,1.,0.));
#732=DIRECTION('',(0.,0.,1.));
#733=DIRECTION('center_axis',(-1.,-1.11022302462516E-16,0.));
#734=DIRECTION('ref_axis',(1.11022302462516E-16,-1.,0.));
#735=DIRECTION('',(1.11022302462516E-16,-1.,0.));
#736=DIRECTION('',(0.,0.,1.));
#737=DIRECTION('',(1.11022302462516E-16,-1.,0.));
#738=DIRECTION('',(0.,0.,1.));
#739=DIRECTION('center_axis',(0.,0.,-1.));
#740=DIRECTION('ref_axis',(1.,0.,0.));
#741=DIRECTION('',(-1.,-6.40987562127855E-17,0.));
#742=DIRECTION('center_axis',(0.,0.,-1.));
#743=DIRECTION('ref_axis',(1.,0.,0.));
#744=DIRECTION('',(-1.,0.,0.));
#745=DIRECTION('center_axis',(0.,0.,-1.));
#746=DIRECTION('ref_axis',(1.,0.,0.));
#747=DIRECTION('',(1.,0.,0.));
#748=DIRECTION('center_axis',(0.,0.,1.));
#749=DIRECTION('ref_axis',(1.,0.,0.));
#750=DIRECTION('center_axis',(0.,0.,1.));
#751=DIRECTION('ref_axis',(1.,0.,0.));
#752=DIRECTION('',(-1.,0.,0.));
#753=DIRECTION('center_axis',(0.,-1.,0.));
#754=DIRECTION('ref_axis',(1.,0.,0.));
#755=DIRECTION('',(1.,0.,0.));
#756=DIRECTION('',(0.,0.,1.));
#757=DIRECTION('',(1.,0.,0.));
#758=DIRECTION('',(0.,0.,1.));
#759=DIRECTION('center_axis',(0.,1.,0.));
#760=DIRECTION('ref_axis',(-1.,0.,0.));
#761=DIRECTION('',(-1.,0.,0.));
#762=DIRECTION('',(0.,0.,1.));
#763=DIRECTION('',(-1.,0.,0.));
#764=DIRECTION('',(0.,0.,1.));
#765=DIRECTION('center_axis',(0.,0.,-1.));
#766=DIRECTION('ref_axis',(1.,0.,0.));
#767=DIRECTION('center_axis',(0.,0.,1.));
#768=DIRECTION('ref_axis',(1.,0.,0.));
#769=DIRECTION('center_axis',(0.,0.,1.));
#770=DIRECTION('ref_axis',(1.,0.,0.));
#771=DIRECTION('center_axis',(0.,0.,-1.));
#772=DIRECTION('ref_axis',(1.,0.,0.));
#773=DIRECTION('center_axis',(0.,0.,-1.));
#774=DIRECTION('ref_axis',(1.,0.,0.));
#775=DIRECTION('center_axis',(0.,0.,1.));
#776=DIRECTION('ref_axis',(1.,0.,0.));
#777=DIRECTION('',(0.,0.,1.));
#778=DIRECTION('center_axis',(0.,0.,-1.));
#779=DIRECTION('ref_axis',(1.,0.,0.));
#780=DIRECTION('center_axis',(0.,0.,1.));
#781=DIRECTION('ref_axis',(1.,0.,0.));
#782=DIRECTION('',(1.,-1.11022302462516E-16,0.));
#783=DIRECTION('',(0.,-1.,0.));
#784=DIRECTION('',(-1.,5.55111512312578E-17,0.));
#785=DIRECTION('',(1.11022302462516E-16,1.,0.));
#786=DIRECTION('center_axis',(0.,0.,1.));
#787=DIRECTION('ref_axis',(1.,0.,0.));
#788=DIRECTION('center_axis',(0.,0.,-1.));
#789=DIRECTION('ref_axis',(1.,0.,0.));
#790=DIRECTION('',(0.,0.,-1.));
#791=DIRECTION('center_axis',(1.,0.,0.));
#792=DIRECTION('ref_axis',(0.,1.,0.));
#793=DIRECTION('',(0.,0.,-1.));
#794=DIRECTION('',(0.,1.,0.));
#795=DIRECTION('',(0.,0.,1.));
#796=DIRECTION('center_axis',(-5.55111512312578E-17,-1.,0.));
#797=DIRECTION('ref_axis',(1.,-5.55111512312578E-17,0.));
#798=DIRECTION('',(1.,-5.55111512312578E-17,0.));
#799=DIRECTION('',(0.,0.,1.));
#800=DIRECTION('center_axis',(-1.,1.11022302462516E-16,0.));
#801=DIRECTION('ref_axis',(-1.11022302462516E-16,-1.,0.));
#802=DIRECTION('',(-1.11022302462516E-16,-1.,0.));
#803=DIRECTION('',(0.,0.,1.));
#804=DIRECTION('center_axis',(1.11022302462516E-16,1.,0.));
#805=DIRECTION('ref_axis',(-1.,1.11022302462516E-16,0.));
#806=DIRECTION('',(-1.,1.11022302462516E-16,0.));
#807=DIRECTION('center_axis',(0.,0.,1.));
#808=DIRECTION('ref_axis',(1.,0.,0.));
#809=DIRECTION('center_axis',(0.,0.,1.));
#810=DIRECTION('ref_axis',(1.,0.,0.));
#811=CARTESIAN_POINT('',(0.,0.,0.));
#812=CARTESIAN_POINT('Origin',(2.07106781186548,-5.,0.8));
#813=CARTESIAN_POINT('',(2.07106781186548,-5.,0.8));
#814=CARTESIAN_POINT('',(5.,-2.07106781186548,0.8));
#815=CARTESIAN_POINT('',(3.53553390593274,-3.53553390593274,0.8));
#816=CARTESIAN_POINT('',(2.07106781186548,-5.,1.2));
#817=CARTESIAN_POINT('',(2.07106781186548,-5.,0.8));
#818=CARTESIAN_POINT('',(3.53553390593274,-3.53553390593274,1.2));
#819=CARTESIAN_POINT('',(7.07106781186183,-3.64746427505835E-12,1.2));
#820=CARTESIAN_POINT('',(5.,-2.07106781186548,1.2));
#821=CARTESIAN_POINT('',(7.07106781186183,-3.64746427505835E-12,1.2));
#822=CARTESIAN_POINT('',(5.,-2.07106781186548,0.8));
#823=CARTESIAN_POINT('Origin',(1.76776695296637,-4.26776695296637,1.2));
#824=CARTESIAN_POINT('',(1.66533453693773E-15,-5.,1.2));
#825=CARTESIAN_POINT('',(5.,-5.,1.2));
#826=CARTESIAN_POINT('Origin',(0.,0.,1.2));
#827=CARTESIAN_POINT('Origin',(-1.76776692990953,-4.2677669760232,1.2));
#828=CARTESIAN_POINT('',(-2.07106781186548,-5.,1.2));
#829=CARTESIAN_POINT('',(-8.66025403784439,-5.,1.2));
#830=CARTESIAN_POINT('',(-3.53553385981907,-3.5355339520464,1.2));
#831=CARTESIAN_POINT('',(-2.68882138776405E-16,-7.07106781186548,1.2));
#832=CARTESIAN_POINT('Origin',(0.,0.,1.2));
#833=CARTESIAN_POINT('Origin',(-5.,-2.07106781186548,0.8));
#834=CARTESIAN_POINT('',(-5.,-2.07106781186548,0.8));
#835=CARTESIAN_POINT('',(-2.07106781186548,-5.,0.8));
#836=CARTESIAN_POINT('',(-4.26776695296637,-2.80330085889911,0.8));
#837=CARTESIAN_POINT('',(-5.,-2.07106781186548,1.2));
#838=CARTESIAN_POINT('',(-5.,-2.07106781186548,0.8));
#839=CARTESIAN_POINT('',(-2.68882138776405E-16,-7.07106781186548,1.2));
#840=CARTESIAN_POINT('',(-2.07106781186548,-5.,0.8));
#841=CARTESIAN_POINT('Origin',(-4.26776692990953,-1.7677669760232,1.2));
#842=CARTESIAN_POINT('',(-5.,8.04061324838318E-16,1.2));
#843=CARTESIAN_POINT('',(-4.99999999999999,-5.,1.2));
#844=CARTESIAN_POINT('Origin',(0.,0.,1.2));
#845=CARTESIAN_POINT('Origin',(-4.26776693330207,1.76776697263067,1.2));
#846=CARTESIAN_POINT('',(-5.,2.07106781186548,1.2));
#847=CARTESIAN_POINT('',(-5.,-3.06161699786838E-16,1.2));
#848=CARTESIAN_POINT('',(-3.53553386660414,3.53553394526134,1.2));
#849=CARTESIAN_POINT('',(-7.07106781186547,1.23165366794353E-15,1.2));
#850=CARTESIAN_POINT('Origin',(0.,0.,1.2));
#851=CARTESIAN_POINT('Origin',(-2.07106781186547,5.,0.8));
#852=CARTESIAN_POINT('',(-2.07106781186547,5.,0.8));
#853=CARTESIAN_POINT('',(-5.,2.07106781186548,0.8));
#854=CARTESIAN_POINT('',(-2.8033008588991,4.26776695296637,0.8));
#855=CARTESIAN_POINT('',(-2.07106781186547,5.,1.2));
#856=CARTESIAN_POINT('',(-2.07106781186547,5.,0.8));
#857=CARTESIAN_POINT('',(-7.07106781186547,1.23165366794353E-15,1.2));
#858=CARTESIAN_POINT('',(-5.,2.07106781186548,0.8));
#859=CARTESIAN_POINT('Origin',(-1.76776693334737,4.26776697258536,1.2));
#860=CARTESIAN_POINT('',(4.9960036108132E-15,5.,1.2));
#861=CARTESIAN_POINT('',(-5.,5.,1.2));
#862=CARTESIAN_POINT('Origin',(0.,0.,1.2));
#863=CARTESIAN_POINT('Origin',(1.76777756296803,4.26775634296349,1.2));
#864=CARTESIAN_POINT('',(3.53553683652243,3.53553097534061,1.2));
#865=CARTESIAN_POINT('',(2.07106781185819,5.,1.2));
#866=CARTESIAN_POINT('',(-3.64167897226597E-12,7.07106781186183,1.2));
#867=CARTESIAN_POINT('Origin',(0.,0.,1.2));
#868=CARTESIAN_POINT('',(4.82436794902991E-15,5.,1.2));
#869=CARTESIAN_POINT('Origin',(5.,2.07106781185818,0.8));
#870=CARTESIAN_POINT('',(5.,2.07106781185818,0.8));
#871=CARTESIAN_POINT('',(2.07106781185819,5.,0.8));
#872=CARTESIAN_POINT('',(4.26776695296455,2.80330085889364,0.8));
#873=CARTESIAN_POINT('',(5.,2.07106781185818,1.2));
#874=CARTESIAN_POINT('',(5.,2.07106781185818,0.8));
#875=CARTESIAN_POINT('',(-3.64167897226597E-12,7.07106781186183,1.2));
#876=CARTESIAN_POINT('',(2.07106781185819,5.,0.8));
#877=CARTESIAN_POINT('Origin',(4.2677592735544,1.76777463237712,1.2));
#878=CARTESIAN_POINT('',(5.,1.11022302462516E-15,1.2));
#879=CARTESIAN_POINT('',(5.,5.,1.2));
#880=CARTESIAN_POINT('Origin',(0.,0.,1.2));
#881=CARTESIAN_POINT('Origin',(4.26776695296637,-1.76776695296637,1.2));
#882=CARTESIAN_POINT('',(5.,-5.,1.2));
#883=CARTESIAN_POINT('Origin',(0.,0.,1.2));
#884=CARTESIAN_POINT('Origin',(-2.5,-2.5,0.8));
#885=CARTESIAN_POINT('',(-4.99999999999999,-5.,0.8));
#886=CARTESIAN_POINT('',(1.22464679914735E-15,-5.,0.8));
#887=CARTESIAN_POINT('',(-4.99999999999999,-5.,0.8));
#888=CARTESIAN_POINT('Origin',(2.5,-2.5,0.8));
#889=CARTESIAN_POINT('',(5.,-5.,0.8));
#890=CARTESIAN_POINT('',(5.,-5.,0.8));
#891=CARTESIAN_POINT('',(8.66025403784439,-5.,0.8));
#892=CARTESIAN_POINT('Origin',(5.,-5.,0.4));
#893=CARTESIAN_POINT('',(5.,-5.,0.4));
#894=CARTESIAN_POINT('',(5.,5.,0.4));
#895=CARTESIAN_POINT('',(5.,-2.5,0.4));
#896=CARTESIAN_POINT('',(5.,-5.,0.4));
#897=CARTESIAN_POINT('',(5.,5.,0.8));
#898=CARTESIAN_POINT('',(5.,-5.,0.8));
#899=CARTESIAN_POINT('',(5.,5.,0.4));
#900=CARTESIAN_POINT('Origin',(-5.,5.,0.4));
#901=CARTESIAN_POINT('',(-5.,5.,0.4));
#902=CARTESIAN_POINT('',(-4.99999999999999,-5.,0.4));
#903=CARTESIAN_POINT('',(-5.,5.55111512312578E-16,0.4));
#904=CARTESIAN_POINT('',(-5.,5.,0.8));
#905=CARTESIAN_POINT('',(-5.,5.,0.4));
#906=CARTESIAN_POINT('',(-4.99999999999999,-5.,0.8));
#907=CARTESIAN_POINT('',(-4.99999999999999,-5.,0.4));
#908=CARTESIAN_POINT('Origin',(-2.5,2.5,0.8));
#909=CARTESIAN_POINT('',(-8.66025403784439,5.,0.8));
#910=CARTESIAN_POINT('Origin',(2.5,2.5,0.8));
#911=CARTESIAN_POINT('',(0.,5.,0.8));
#912=CARTESIAN_POINT('Origin',(-5.,0.,0.4));
#913=CARTESIAN_POINT('',(-8.66025403784439,-5.,0.4));
#914=CARTESIAN_POINT('',(-8.66025403784439,-5.,0.4));
#915=CARTESIAN_POINT('',(-10.,1.22464679914735E-15,0.4));
#916=CARTESIAN_POINT('Origin',(0.,0.,0.4));
#917=CARTESIAN_POINT('',(-8.66025403784439,5.,0.4));
#918=CARTESIAN_POINT('Origin',(0.,0.,0.4));
#919=CARTESIAN_POINT('',(-8.66025403784439,5.,0.4));
#920=CARTESIAN_POINT('Origin',(-8.66025403784439,-5.,0.));
#921=CARTESIAN_POINT('',(-8.66025403784439,-5.,0.));
#922=CARTESIAN_POINT('',(8.66025403784439,-5.,0.));
#923=CARTESIAN_POINT('',(2.22044604925031E-15,-5.,0.));
#924=CARTESIAN_POINT('',(-8.66025403784439,-5.,0.));
#925=CARTESIAN_POINT('',(8.66025403784439,-5.,0.4));
#926=CARTESIAN_POINT('',(-8.66025403784439,-5.,0.4));
#927=CARTESIAN_POINT('',(8.66025403784439,-5.,0.));
#928=CARTESIAN_POINT('Origin',(8.66025403784439,5.,0.));
#929=CARTESIAN_POINT('',(8.66025403784439,5.,0.));
#930=CARTESIAN_POINT('',(-8.66025403784439,5.,0.));
#931=CARTESIAN_POINT('',(4.3301270189222,5.,0.));
#932=CARTESIAN_POINT('',(8.66025403784439,5.,0.4));
#933=CARTESIAN_POINT('',(8.66025403784439,5.,0.));
#934=CARTESIAN_POINT('',(-8.66025403784439,5.,0.4));
#935=CARTESIAN_POINT('',(-8.66025403784439,5.,0.));
#936=CARTESIAN_POINT('Origin',(5.,0.,0.4));
#937=CARTESIAN_POINT('Origin',(0.,0.,0.4));
#938=CARTESIAN_POINT('Origin',(4.44089209850063E-15,5.55111512312578E-15,
0.));
#939=CARTESIAN_POINT('Origin',(0.,0.,0.));
#940=CARTESIAN_POINT('Origin',(0.,0.,0.));
#941=CARTESIAN_POINT('',(-10.,-1.22464679914735E-15,-10.));
#942=CARTESIAN_POINT('Origin',(0.,0.,-10.));
#943=CARTESIAN_POINT('',(-10.,1.22464679914735E-15,0.));
#944=CARTESIAN_POINT('Origin',(0.,0.,0.));
#945=CARTESIAN_POINT('Origin',(4.44089209850063E-15,5.55111512312578E-15,
-10.));
#946=CARTESIAN_POINT('',(-20.,20.,-10.));
#947=CARTESIAN_POINT('',(20.,20.,-10.));
#948=CARTESIAN_POINT('',(-20.,20.,-10.));
#949=CARTESIAN_POINT('',(20.,-20.,-10.));
#950=CARTESIAN_POINT('',(20.,20.,-10.));
#951=CARTESIAN_POINT('',(-20.,-20.,-10.));
#952=CARTESIAN_POINT('',(20.,-20.,-10.));
#953=CARTESIAN_POINT('',(-20.,-20.,-10.));
#954=CARTESIAN_POINT('Origin',(0.,0.,0.));
#955=CARTESIAN_POINT('',(-5.,-6.12323399573677E-16,10.));
#956=CARTESIAN_POINT('Origin',(0.,0.,10.));
#957=CARTESIAN_POINT('',(-5.,-6.12323399573677E-16,0.));
#958=CARTESIAN_POINT('Origin',(20.,-20.,0.));
#959=CARTESIAN_POINT('',(20.,20.,10.));
#960=CARTESIAN_POINT('',(20.,20.,0.));
#961=CARTESIAN_POINT('',(20.,-20.,10.));
#962=CARTESIAN_POINT('',(20.,20.,10.));
#963=CARTESIAN_POINT('',(20.,-20.,0.));
#964=CARTESIAN_POINT('Origin',(-20.,-20.,0.));
#965=CARTESIAN_POINT('',(-20.,-20.,10.));
#966=CARTESIAN_POINT('',(20.,-20.,10.));
#967=CARTESIAN_POINT('',(-20.,-20.,0.));
#968=CARTESIAN_POINT('Origin',(-20.,20.,0.));
#969=CARTESIAN_POINT('',(-20.,20.,10.));
#970=CARTESIAN_POINT('',(-20.,-20.,10.));
#971=CARTESIAN_POINT('',(-20.,20.,0.));
#972=CARTESIAN_POINT('Origin',(20.,20.,0.));
#973=CARTESIAN_POINT('',(-20.,20.,10.));
#974=CARTESIAN_POINT('Origin',(4.44089209850063E-15,5.55111512312578E-15,
10.));
#975=CARTESIAN_POINT('Origin',(4.44089209850063E-15,5.55111512312578E-15,
0.));
#976=UNCERTAINTY_MEASURE_WITH_UNIT(LENGTH_MEASURE(0.01),#980,
'DISTANCE_ACCURACY_VALUE',
'Maximum model space distance between geometric entities at asserted c
onnectivities');
#977=UNCERTAINTY_MEASURE_WITH_UNIT(LENGTH_MEASURE(0.01),#980,
'DISTANCE_ACCURACY_VALUE',
'Maximum model space distance between geometric entities at asserted c
onnectivities');
#978=(
GEOMETRIC_REPRESENTATION_CONTEXT(3)
GLOBAL_UNCERTAINTY_ASSIGNED_CONTEXT((#976))
GLOBAL_UNIT_ASSIGNED_CONTEXT((#980,#982,#983))
REPRESENTATION_CONTEXT('','3D')
);
#979=(
GEOMETRIC_REPRESENTATION_CONTEXT(3)
GLOBAL_UNCERTAINTY_ASSIGNED_CONTEXT((#977))
GLOBAL_UNIT_ASSIGNED_CONTEXT((#980,#982,#983))
REPRESENTATION_CONTEXT('','3D')
);
#980=(
LENGTH_UNIT()
NAMED_UNIT(*)
SI_UNIT(.MILLI.,.METRE.)
);
#981=(
LENGTH_UNIT()
NAMED_UNIT(*)
SI_UNIT($,.METRE.)
);
#982=(
NAMED_UNIT(*)
PLANE_ANGLE_UNIT()
SI_UNIT($,.RADIAN.)
);
#983=(
NAMED_UNIT(*)
SI_UNIT($,.STERADIAN.)
SOLID_ANGLE_UNIT()
);
#984=SHAPE_DEFINITION_REPRESENTATION(#985,#986);
#985=PRODUCT_DEFINITION_SHAPE('',$,#988);
#986=SHAPE_REPRESENTATION('',(#601),#978);
#987=PRODUCT_DEFINITION_CONTEXT('part definition',#992,'design');
#988=PRODUCT_DEFINITION('2026-09-30-08-56-45-624','stepped Reduction',#989,
#987);
#989=PRODUCT_DEFINITION_FORMATION('',$,#994);
#990=PRODUCT_RELATED_PRODUCT_CATEGORY('stepped Reduction',
'stepped Reduction',(#994));
#991=APPLICATION_PROTOCOL_DEFINITION('international standard',
'automotive_design',2009,#992);
#992=APPLICATION_CONTEXT(
'Core Data for Automotive Mechanical Design Process');
#993=PRODUCT_CONTEXT('part definition',#992,'mechanical');
#994=PRODUCT('2026-09-30-08-56-45-624','stepped Reduction',$,(#993));
#995=PRESENTATION_STYLE_ASSIGNMENT((#996));
#996=SURFACE_STYLE_USAGE(.BOTH.,#997);
#997=SURFACE_SIDE_STYLE('',(#998));
#998=SURFACE_STYLE_FILL_AREA(#999);
#999=FILL_AREA_STYLE('Steel - Satin',(#1000));
#1000=FILL_AREA_STYLE_COLOUR('Steel - Satin',#1001);
#1001=COLOUR_RGB('Steel - Satin',0.627450980392157,0.627450980392157,0.627450980392157);
ENDSEC;
END-ISO-10303-21;
