ISO-10303-21;
HEADER;
/* Generated by software containing ST-Developer
 * from STEP Tools, Inc. (www.steptools.com) 
 */

FILE_DESCRIPTION(
/* description */ (''),
/* implementation_level */ '2;1');

FILE_NAME(
/* name */ 'unsupported.step',
/* time_stamp */ '2026-09-30T09:05:27-07:00',
/* author */ (''),
/* organization */ (''),
/* preprocessor_version */ 'ST-DEVELOPER v20.1',
/* originating_system */ 'Autodesk Translation Framework v15.8.0.0',
/* authorisation */ '');

FILE_SCHEMA (('AUTOMOTIVE_DESIGN { 1 0 10303 214 3 1 1 }'));
ENDSEC;

DATA;
#10=MECHANICAL_DESIGN_GEOMETRIC_PRESENTATION_REPRESENTATION('',(#13),#267);
#11=SHAPE_REPRESENTATION_RELATIONSHIP('SRR','None',#274,#12);
#12=ADVANCED_BREP_SHAPE_REPRESENTATION('',(#14),#266);
#13=STYLED_ITEM('',(#283),#14);
#14=MANIFOLD_SOLID_BREP('Body1',#155);
#15=FACE_BOUND('',#36,.T.);
#16=FACE_BOUND('',#43,.T.);
#17=FACE_BOUND('',#45,.T.);
#18=PLANE('',#172);
#19=PLANE('',#176);
#20=PLANE('',#177);
#21=PLANE('',#178);
#22=PLANE('',#179);
#23=PLANE('',#180);
#24=PLANE('',#181);
#25=FACE_OUTER_BOUND('',#34,.T.);
#26=FACE_OUTER_BOUND('',#35,.T.);
#27=FACE_OUTER_BOUND('',#37,.T.);
#28=FACE_OUTER_BOUND('',#38,.T.);
#29=FACE_OUTER_BOUND('',#39,.T.);
#30=FACE_OUTER_BOUND('',#40,.T.);
#31=FACE_OUTER_BOUND('',#41,.T.);
#32=FACE_OUTER_BOUND('',#42,.T.);
#33=FACE_OUTER_BOUND('',#44,.T.);
#34=EDGE_LOOP('',(#108,#109,#110,#111));
#35=EDGE_LOOP('',(#112,#113,#114,#115));
#36=EDGE_LOOP('',(#116));
#37=EDGE_LOOP('',(#117,#118,#119,#120));
#38=EDGE_LOOP('',(#121,#122,#123,#124));
#39=EDGE_LOOP('',(#125,#126,#127,#128));
#40=EDGE_LOOP('',(#129,#130,#131,#132));
#41=EDGE_LOOP('',(#133,#134,#135,#136));
#42=EDGE_LOOP('',(#137,#138,#139,#140));
#43=EDGE_LOOP('',(#141));
#44=EDGE_LOOP('',(#142));
#45=EDGE_LOOP('',(#143));
#46=LINE('',#229,#60);
#47=LINE('',#234,#61);
#48=LINE('',#236,#62);
#49=LINE('',#238,#63);
#50=LINE('',#239,#64);
#51=LINE('',#244,#65);
#52=LINE('',#248,#66);
#53=LINE('',#250,#67);
#54=LINE('',#251,#68);
#55=LINE('',#254,#69);
#56=LINE('',#255,#70);
#57=LINE('',#258,#71);
#58=LINE('',#259,#72);
#59=LINE('',#261,#73);
#60=VECTOR('',#188,10.);
#61=VECTOR('',#193,10.);
#62=VECTOR('',#194,10.);
#63=VECTOR('',#195,10.);
#64=VECTOR('',#196,10.);
#65=VECTOR('',#201,5.);
#66=VECTOR('',#206,10.);
#67=VECTOR('',#207,10.);
#68=VECTOR('',#208,10.);
#69=VECTOR('',#211,10.);
#70=VECTOR('',#212,10.);
#71=VECTOR('',#215,10.);
#72=VECTOR('',#216,10.);
#73=VECTOR('',#219,10.);
#74=CIRCLE('',#170,10.);
#75=CIRCLE('',#171,10.);
#76=CIRCLE('',#174,5.);
#77=CIRCLE('',#175,5.);
#78=VERTEX_POINT('',#226);
#79=VERTEX_POINT('',#228);
#80=VERTEX_POINT('',#232);
#81=VERTEX_POINT('',#233);
#82=VERTEX_POINT('',#235);
#83=VERTEX_POINT('',#237);
#84=VERTEX_POINT('',#241);
#85=VERTEX_POINT('',#243);
#86=VERTEX_POINT('',#247);
#87=VERTEX_POINT('',#249);
#88=VERTEX_POINT('',#253);
#89=VERTEX_POINT('',#257);
#90=EDGE_CURVE('',#78,#78,#74,.T.);
#91=EDGE_CURVE('',#78,#79,#46,.T.);
#92=EDGE_CURVE('',#79,#79,#75,.T.);
#93=EDGE_CURVE('',#80,#81,#47,.T.);
#94=EDGE_CURVE('',#81,#82,#48,.T.);
#95=EDGE_CURVE('',#82,#83,#49,.T.);
#96=EDGE_CURVE('',#83,#80,#50,.T.);
#97=EDGE_CURVE('',#84,#84,#76,.T.);
#98=EDGE_CURVE('',#84,#85,#51,.T.);
#99=EDGE_CURVE('',#85,#85,#77,.T.);
#100=EDGE_CURVE('',#86,#81,#52,.T.);
#101=EDGE_CURVE('',#87,#86,#53,.T.);
#102=EDGE_CURVE('',#82,#87,#54,.T.);
#103=EDGE_CURVE('',#88,#87,#55,.T.);
#104=EDGE_CURVE('',#83,#88,#56,.T.);
#105=EDGE_CURVE('',#89,#88,#57,.T.);
#106=EDGE_CURVE('',#80,#89,#58,.T.);
#107=EDGE_CURVE('',#86,#89,#59,.T.);
#108=ORIENTED_EDGE('',*,*,#90,.F.);
#109=ORIENTED_EDGE('',*,*,#91,.T.);
#110=ORIENTED_EDGE('',*,*,#92,.F.);
#111=ORIENTED_EDGE('',*,*,#91,.F.);
#112=ORIENTED_EDGE('',*,*,#93,.T.);
#113=ORIENTED_EDGE('',*,*,#94,.T.);
#114=ORIENTED_EDGE('',*,*,#95,.T.);
#115=ORIENTED_EDGE('',*,*,#96,.T.);
#116=ORIENTED_EDGE('',*,*,#90,.T.);
#117=ORIENTED_EDGE('',*,*,#97,.F.);
#118=ORIENTED_EDGE('',*,*,#98,.T.);
#119=ORIENTED_EDGE('',*,*,#99,.T.);
#120=ORIENTED_EDGE('',*,*,#98,.F.);
#121=ORIENTED_EDGE('',*,*,#100,.F.);
#122=ORIENTED_EDGE('',*,*,#101,.F.);
#123=ORIENTED_EDGE('',*,*,#102,.F.);
#124=ORIENTED_EDGE('',*,*,#94,.F.);
#125=ORIENTED_EDGE('',*,*,#102,.T.);
#126=ORIENTED_EDGE('',*,*,#103,.F.);
#127=ORIENTED_EDGE('',*,*,#104,.F.);
#128=ORIENTED_EDGE('',*,*,#95,.F.);
#129=ORIENTED_EDGE('',*,*,#104,.T.);
#130=ORIENTED_EDGE('',*,*,#105,.F.);
#131=ORIENTED_EDGE('',*,*,#106,.F.);
#132=ORIENTED_EDGE('',*,*,#96,.F.);
#133=ORIENTED_EDGE('',*,*,#106,.T.);
#134=ORIENTED_EDGE('',*,*,#107,.F.);
#135=ORIENTED_EDGE('',*,*,#100,.T.);
#136=ORIENTED_EDGE('',*,*,#93,.F.);
#137=ORIENTED_EDGE('',*,*,#107,.T.);
#138=ORIENTED_EDGE('',*,*,#105,.T.);
#139=ORIENTED_EDGE('',*,*,#103,.T.);
#140=ORIENTED_EDGE('',*,*,#101,.T.);
#141=ORIENTED_EDGE('',*,*,#97,.T.);
#142=ORIENTED_EDGE('',*,*,#92,.T.);
#143=ORIENTED_EDGE('',*,*,#99,.F.);
#144=CYLINDRICAL_SURFACE('',#169,10.);
#145=CYLINDRICAL_SURFACE('',#173,5.);
#146=ADVANCED_FACE('',(#25),#144,.F.);
#147=ADVANCED_FACE('',(#26,#15),#18,.F.);
#148=ADVANCED_FACE('',(#27),#145,.F.);
#149=ADVANCED_FACE('',(#28),#19,.T.);
#150=ADVANCED_FACE('',(#29),#20,.T.);
#151=ADVANCED_FACE('',(#30),#21,.T.);
#152=ADVANCED_FACE('',(#31),#22,.T.);
#153=ADVANCED_FACE('',(#32,#16),#23,.T.);
#154=ADVANCED_FACE('',(#33,#17),#24,.F.);
#155=CLOSED_SHELL('',(#146,#147,#148,#149,#150,#151,#152,#153,#154));
#156=DERIVED_UNIT_ELEMENT(#158,1.);
#157=DERIVED_UNIT_ELEMENT(#269,-3.);
#158=(
MASS_UNIT()
NAMED_UNIT(*)
SI_UNIT(.KILO.,.GRAM.)
);
#159=DERIVED_UNIT((#156,#157));
#160=MEASURE_REPRESENTATION_ITEM('density measure',
POSITIVE_RATIO_MEASURE(7850.),#159);
#161=PROPERTY_DEFINITION_REPRESENTATION(#166,#163);
#162=PROPERTY_DEFINITION_REPRESENTATION(#167,#164);
#163=REPRESENTATION('material name',(#165),#266);
#164=REPRESENTATION('density',(#160),#266);
#165=DESCRIPTIVE_REPRESENTATION_ITEM('Steel','Steel');
#166=PROPERTY_DEFINITION('material property','material name',#276);
#167=PROPERTY_DEFINITION('material property','density of part',#276);
#168=AXIS2_PLACEMENT_3D('',#224,#182,#183);
#169=AXIS2_PLACEMENT_3D('',#225,#184,#185);
#170=AXIS2_PLACEMENT_3D('',#227,#186,#187);
#171=AXIS2_PLACEMENT_3D('',#230,#189,#190);
#172=AXIS2_PLACEMENT_3D('',#231,#191,#192);
#173=AXIS2_PLACEMENT_3D('',#240,#197,#198);
#174=AXIS2_PLACEMENT_3D('',#242,#199,#200);
#175=AXIS2_PLACEMENT_3D('',#245,#202,#203);
#176=AXIS2_PLACEMENT_3D('',#246,#204,#205);
#177=AXIS2_PLACEMENT_3D('',#252,#209,#210);
#178=AXIS2_PLACEMENT_3D('',#256,#213,#214);
#179=AXIS2_PLACEMENT_3D('',#260,#217,#218);
#180=AXIS2_PLACEMENT_3D('',#262,#220,#221);
#181=AXIS2_PLACEMENT_3D('',#263,#222,#223);
#182=DIRECTION('axis',(0.,0.,1.));
#183=DIRECTION('refdir',(1.,0.,0.));
#184=DIRECTION('center_axis',(0.,0.,-1.));
#185=DIRECTION('ref_axis',(1.,0.,0.));
#186=DIRECTION('center_axis',(0.,0.,1.));
#187=DIRECTION('ref_axis',(1.,0.,0.));
#188=DIRECTION('',(0.,0.,1.));
#189=DIRECTION('center_axis',(0.,0.,-1.));
#190=DIRECTION('ref_axis',(1.,0.,0.));
#191=DIRECTION('center_axis',(0.,0.,1.));
#192=DIRECTION('ref_axis',(1.,0.,0.));
#193=DIRECTION('',(1.,-1.11022302462516E-16,0.));
#194=DIRECTION('',(0.,-1.,0.));
#195=DIRECTION('',(-1.,5.55111512312578E-17,0.));
#196=DIRECTION('',(1.11022302462516E-16,1.,0.));
#197=DIRECTION('center_axis',(0.,0.,1.));
#198=DIRECTION('ref_axis',(1.,0.,0.));
#199=DIRECTION('center_axis',(0.,0.,-1.));
#200=DIRECTION('ref_axis',(1.,0.,0.));
#201=DIRECTION('',(0.,0.,-1.));
#202=DIRECTION('center_axis',(0.,0.,-1.));
#203=DIRECTION('ref_axis',(1.,0.,0.));
#204=DIRECTION('center_axis',(1.,0.,0.));
#205=DIRECTION('ref_axis',(0.,1.,0.));
#206=DIRECTION('',(0.,0.,-1.));
#207=DIRECTION('',(0.,1.,0.));
#208=DIRECTION('',(0.,0.,1.));
#209=DIRECTION('center_axis',(-5.55111512312578E-17,-1.,0.));
#210=DIRECTION('ref_axis',(1.,-5.55111512312578E-17,0.));
#211=DIRECTION('',(1.,-5.55111512312578E-17,0.));
#212=DIRECTION('',(0.,0.,1.));
#213=DIRECTION('center_axis',(-1.,1.11022302462516E-16,0.));
#214=DIRECTION('ref_axis',(-1.11022302462516E-16,-1.,0.));
#215=DIRECTION('',(-1.11022302462516E-16,-1.,0.));
#216=DIRECTION('',(0.,0.,1.));
#217=DIRECTION('center_axis',(1.11022302462516E-16,1.,0.));
#218=DIRECTION('ref_axis',(-1.,1.11022302462516E-16,0.));
#219=DIRECTION('',(-1.,1.11022302462516E-16,0.));
#220=DIRECTION('center_axis',(0.,0.,1.));
#221=DIRECTION('ref_axis',(1.,0.,0.));
#222=DIRECTION('center_axis',(0.,0.,1.));
#223=DIRECTION('ref_axis',(1.,0.,0.));
#224=CARTESIAN_POINT('',(0.,0.,0.));
#225=CARTESIAN_POINT('Origin',(0.,0.,0.));
#226=CARTESIAN_POINT('',(-10.,-1.22464679914735E-15,-10.));
#227=CARTESIAN_POINT('Origin',(0.,0.,-10.));
#228=CARTESIAN_POINT('',(-10.,-1.22464679914735E-15,0.));
#229=CARTESIAN_POINT('',(-10.,1.22464679914735E-15,0.));
#230=CARTESIAN_POINT('Origin',(0.,0.,0.));
#231=CARTESIAN_POINT('Origin',(4.44089209850063E-15,5.55111512312578E-15,
-10.));
#232=CARTESIAN_POINT('',(-20.,20.,-10.));
#233=CARTESIAN_POINT('',(20.,20.,-10.));
#234=CARTESIAN_POINT('',(-20.,20.,-10.));
#235=CARTESIAN_POINT('',(20.,-20.,-10.));
#236=CARTESIAN_POINT('',(20.,20.,-10.));
#237=CARTESIAN_POINT('',(-20.,-20.,-10.));
#238=CARTESIAN_POINT('',(20.,-20.,-10.));
#239=CARTESIAN_POINT('',(-20.,-20.,-10.));
#240=CARTESIAN_POINT('Origin',(0.,0.,0.));
#241=CARTESIAN_POINT('',(-5.,-6.12323399573677E-16,10.));
#242=CARTESIAN_POINT('Origin',(0.,0.,10.));
#243=CARTESIAN_POINT('',(-5.,-6.12323399573677E-16,0.));
#244=CARTESIAN_POINT('',(-5.,-6.12323399573677E-16,0.));
#245=CARTESIAN_POINT('Origin',(0.,0.,0.));
#246=CARTESIAN_POINT('Origin',(20.,-20.,0.));
#247=CARTESIAN_POINT('',(20.,20.,10.));
#248=CARTESIAN_POINT('',(20.,20.,0.));
#249=CARTESIAN_POINT('',(20.,-20.,10.));
#250=CARTESIAN_POINT('',(20.,20.,10.));
#251=CARTESIAN_POINT('',(20.,-20.,0.));
#252=CARTESIAN_POINT('Origin',(-20.,-20.,0.));
#253=CARTESIAN_POINT('',(-20.,-20.,10.));
#254=CARTESIAN_POINT('',(20.,-20.,10.));
#255=CARTESIAN_POINT('',(-20.,-20.,0.));
#256=CARTESIAN_POINT('Origin',(-20.,20.,0.));
#257=CARTESIAN_POINT('',(-20.,20.,10.));
#258=CARTESIAN_POINT('',(-20.,-20.,10.));
#259=CARTESIAN_POINT('',(-20.,20.,0.));
#260=CARTESIAN_POINT('Origin',(20.,20.,0.));
#261=CARTESIAN_POINT('',(-20.,20.,10.));
#262=CARTESIAN_POINT('Origin',(4.44089209850063E-15,5.55111512312578E-15,
10.));
#263=CARTESIAN_POINT('Origin',(4.44089209850063E-15,5.55111512312578E-15,
0.));
#264=UNCERTAINTY_MEASURE_WITH_UNIT(LENGTH_MEASURE(0.01),#268,
'DISTANCE_ACCURACY_VALUE',
'Maximum model space distance between geometric entities at asserted c
onnectivities');
#265=UNCERTAINTY_MEASURE_WITH_UNIT(LENGTH_MEASURE(0.01),#268,
'DISTANCE_ACCURACY_VALUE',
'Maximum model space distance between geometric entities at asserted c
onnectivities');
#266=(
GEOMETRIC_REPRESENTATION_CONTEXT(3)
GLOBAL_UNCERTAINTY_ASSIGNED_CONTEXT((#264))
GLOBAL_UNIT_ASSIGNED_CONTEXT((#268,#270,#271))
REPRESENTATION_CONTEXT('','3D')
);
#267=(
GEOMETRIC_REPRESENTATION_CONTEXT(3)
GLOBAL_UNCERTAINTY_ASSIGNED_CONTEXT((#265))
GLOBAL_UNIT_ASSIGNED_CONTEXT((#268,#270,#271))
REPRESENTATION_CONTEXT('','3D')
);
#268=(
LENGTH_UNIT()
NAMED_UNIT(*)
SI_UNIT(.MILLI.,.METRE.)
);
#269=(
LENGTH_UNIT()
NAMED_UNIT(*)
SI_UNIT($,.METRE.)
);
#270=(
NAMED_UNIT(*)
PLANE_ANGLE_UNIT()
SI_UNIT($,.RADIAN.)
);
#271=(
NAMED_UNIT(*)
SI_UNIT($,.STERADIAN.)
SOLID_ANGLE_UNIT()
);
#272=SHAPE_DEFINITION_REPRESENTATION(#273,#274);
#273=PRODUCT_DEFINITION_SHAPE('',$,#276);
#274=SHAPE_REPRESENTATION('',(#168),#266);
#275=PRODUCT_DEFINITION_CONTEXT('part definition',#280,'design');
#276=PRODUCT_DEFINITION('2026-09-30-08-56-45-624','unsupported',#277,#275);
#277=PRODUCT_DEFINITION_FORMATION('',$,#282);
#278=PRODUCT_RELATED_PRODUCT_CATEGORY('unsupported','unsupported',(#282));
#279=APPLICATION_PROTOCOL_DEFINITION('international standard',
'automotive_design',2009,#280);
#280=APPLICATION_CONTEXT(
'Core Data for Automotive Mechanical Design Process');
#281=PRODUCT_CONTEXT('part definition',#280,'mechanical');
#282=PRODUCT('2026-09-30-08-56-45-624','unsupported',$,(#281));
#283=PRESENTATION_STYLE_ASSIGNMENT((#284));
#284=SURFACE_STYLE_USAGE(.BOTH.,#285);
#285=SURFACE_SIDE_STYLE('',(#286));
#286=SURFACE_STYLE_FILL_AREA(#287);
#287=FILL_AREA_STYLE('Steel - Satin',(#288));
#288=FILL_AREA_STYLE_COLOUR('Steel - Satin',#289);
#289=COLOUR_RGB('Steel - Satin',0.627450980392157,0.627450980392157,0.627450980392157);
ENDSEC;
END-ISO-10303-21;
